<?xml version="1.0" encoding="UTF-8"?>
<svg width="600" height="600" version="1.1" xmlns="http://www.w3.org/2000/svg">
 <g transform="translate(79.305 -10.993)" stroke="None">
  <path d="m221 109c2.18-0.77 8.89-2.25 11-2 0-2.56-0.75-6.25 1-8 2.22-2.22 18.84-2.16 21 0 3.07 3.07-1.54 8.53 5.03 8.97 6.56 0.44 14.1 5.44 18.22 10.78s2.83 5.59 3.75 11.25c0.03 0.21 0.93 0.65 1 1 0.46 2.24-0.34 4.74 0 7h-7c-0.5-0.03-1.52-0.09-2 0s-2.34 1.32-2 2c0.26-0.25 1 0 1 0h1c2.81-2.08 7.45-0.51 11-1v-4c-0.3-3.27 0-6.71 0-10v-1c-4.21-0.4-5.97-8.73-11.3-11.7-5.33-2.96-10.76-5.7-16.7-7.3 3.46-9.17-5.36-7.94-12-8s-16.41-1.38-13 9c-3.81-0.34-7.09 1.38-10 3z" fill="#dcb5b5"/>
  <path d="m233 99c4.6-0.72 8.43 1.53 13 1-2.39 2.33-2.74 6.2-1 9-3.54 2.02-8.05 0.55-12 1 4.42 2.25 10.83 0.39 16 1 1.34-0.16 3.97-1.92 6-1-1.32-3.38-1-7.27-1-11-2.16-2.16-18.78-2.22-21 0z" fill="#e3332e"/>
  <path d="m232 107c0 0.5 0.23 1.65 0 2 2.61-0.76 0.1-8.08 1-10-1.75 1.75-1 5.44-1 8z" fill="#9c625d"/>
  <path d="m232 109c-1.41 2.17-6.82 0.62-9.22 1.78s-5.33 1.87-7.78 3.22c-9.85 5.43-16.4 16.04-17 27-0.18 3.25-0.22 6.75 0 10 0.21 3.07 0.78 5.25 2 8 4.72 8.47 13.28 17.8 23 20-0.26-2.44-1.76-4.52-2-7 5.55-0.76 2.45-3.28 2-7 5.12-0.36 4.47-7.7 8.77-11.23s9.17-6.76 9.23-12.77c8.79 6.6-0.36-6.8 8.23-5.77 8.6 1.03 21.06-10.05 26.77 0.77 0.25-0.25 0.73-0.79 1-1-0.02 0.42-0.97-2.92-1-3-3.64-10.59-16.11-20.41-27-21-5.17-0.61-11.58 1.25-16-1 3.95-0.45 8.46 1.02 12-1-1.74-2.8-1.39-6.67 1-9-4.57 0.53-8.4-1.72-13-1-0.9 1.92 1.61 9.24-1 10z" fill="#a90707"/>
  <path d="m249 111c10.89 0.59 23.36 10.41 27 21 0-0.45 1.55-2.05 0-3 2.16-0.46 2.99 2.97 5 1-0.92-5.66 0.37-5.91-3.75-11.25s-11.66-10.34-18.22-10.78c-6.57-0.44-1.96-5.9-5.03-8.97 0 3.73-0.32 7.62 1 11-2.03-0.92-4.66 0.84-6 1z" fill="#ec726d"/>
  <path d="m355 131c-0.34 0.69-1.52 2.13-1 3h1c2.49-3.34 4.36-7.35 6.92-11.08 2.56-3.74 7.17-5.29 10.08-7.92 1.07-0.96 1.09-2.92 2-4 1.36 3 5.06 0.09 8 1 0.11-1-0.47-2.73 1-3-0.12-1.33-0.57-4.83 0-6 0.56-1.16 0.96-0.58 2-1 6.51-2.66 23.88-3.96 20 8 2.27 3.22 11.99 0.74 14.75 5.25 2.77 4.5 8.3 4.95 11 10s4.57 9.04 6.24 14.76c1.68 5.72 0.56 12.68-0.99 17.99-5.56 19.09-21.33 29.92-41 31-9.79-17.33-27.86-29.11-42-43-0.24 0.43-1.58 0.84-2 1-1.56 0.61-1.21-7.56-1-10-2.32 6.01-0.34 14.17-1 21 7.61 1.32 14.74 10.54 21.25 16.75 6.51 6.22 13.46 13.03 19.75 19.25 3.78-2.23 7.98-6.48 11-1 0.04-2.39 3.94-2.96 2-5 20.86-1.34 35.58-18.1 38-38s-14.09-42.11-35-40c5.86-14.8-27.85-14.68-24-1-11.33 0.78-22.09 12-27 22z" fill="#a4bdda"/>
  <path d="m385 102c3.18 0.09 6.42 3.1 10 2 0.17 2.72-0.61 5.67 1 8h-12c-1.19-0.72-0.89-1.68-1-3-1.47 0.27-0.89 2-1 3-2.94-0.91-6.64 2-8-1-0.91 1.08-0.93 3.04-2 4 5.11-1.55 11.81 0.14 18 0s14.73-0.84 21 0c-8.14-2.11-18.12-0.5-27-1 6.09-2.29 14.16-0.37 21-1v-3c3.88-11.96-13.49-10.66-20-8z" fill="#1b6ec0"/>
  <path d="m383 103c-0.32 1.63 2.32 6.51 1 9h12c-1.61-2.33-0.83-5.28-1-8-3.58 1.1-6.82-1.91-10-2-1.04 0.42-1.44-0.16-2 1z" fill="#0a3a84"/>
  <path d="m383 109c0.11 1.32-0.19 2.28 1 3 1.32-2.49-1.32-7.37-1-9-0.57 1.17-0.12 4.67 0 6z" fill="#00003b"/>
  <path d="m221 109c-2.45 1.37-3.91 3.37-6 5 2.45-1.35 5.38-2.06 7.78-3.22s7.81 0.39 9.22-1.78c0.23-0.35 0-1.5 0-2-2.11-0.25-8.82 1.23-11 2z" fill="#db8f92"/>
  <path d="m411 115c7.54 1.95 12.16 6.87 18 12 1.94 1.7 4.52 6.66 5 10 0.98 6.88 2.83 13.61 2 21 1.55-5.31 2.67-12.27 0.99-17.99-1.67-5.72-3.54-9.71-6.24-14.76s-8.23-5.5-11-10c-2.76-4.51-12.48-2.03-14.75-5.25v3c-6.84 0.63-14.91-1.29-21 1 8.88 0.5 18.86-1.11 27 1z" fill="#4190d2"/>
  <path d="m372 115c-2.91 2.63-7.52 4.18-10.08 7.92-2.56 3.73-4.43 7.74-6.92 11.08-0.19 1.98-1.78 4.5-2 6 0.16 1.16 0.56 5.01 0 6 14.14 13.89 32.21 25.67 42 43 19.67-1.08 35.44-11.91 41-31 0.83-7.39-1.02-14.12-2-21-0.86-2.65-3.11-7.58-5-10-5.84-5.13-10.46-10.05-18-12-6.27-0.84-14.81-0.14-21 0s-12.89-1.55-18 0z" fill="#0654aa"/>
  <path d="m284 124v1c1.36 0.47 3.55-0.07 5 0 4.01 0.21 7.77 1.58 12 1-0.37 4.32-0.6 8.4 4 9-6.64-1.05-14.72 3.87-20 0h-1v4c-3.55 0.49-8.19-1.08-11 1 5.88 0 12.16-0.2 18 0s13.4-0.49 19 0 14.14-1.11 19 0 15.21-2.95 18 1c-1.69-3.71-6.8-1.33-10-2 2.76-0.23 0.31-3.37 1-4-3.98 0.75-10.51 2.47-14 0-2.2-1.56-2.18-2.6-2-6-3.9-0.25-7.56 0.55-11 2 3.35-13.16-19.63-10.56-27-7z" fill="#b1b0b3"/>
  <path d="m322 125c5.6-0.51 10.39 1.54 16 1-1.5 4.51 1.47 8.54 3 9 0.56 1.02 0.99 2.45 2 3 0.12-6.03 1.17 2.32 5 0-0.14-3.42 0.91-4.34 3-4 0.24-0.26 2.61 0 3 0-0.52-0.87 0.66-2.31 1-3-4.95 1.44-8.69-2.99-7-9-7.19 1.68-20.65-3.06-26 3z" fill="#a9abb0"/>
  <path d="m284 135h1c1.66 0 3.34 0.07 5 0-1.96-1.52-1-6.83-1-9v-1c-1.45-0.07-3.64 0.47-5 0 0 3.29-0.3 6.73 0 10z" fill="#63363b"/>
  <path d="m289 126c6.24-0.41 4.08 4.89 6 9h-5c-1.66 0.07-3.34 0-5 0 5.28 3.87 13.36-1.05 20 0-4.6-0.6-4.37-4.68-4-9-4.23 0.58-7.99-0.79-12-1z" fill="#828184"/>
  <path d="m322 126c1.57 2.12 0.88 5.22 1 8 3.85-0.25 1.39-5.69 1-8 7.92-2.7 5.72 5.92 9 9h-9c3.49 2.47 10.02 0.75 14 0 0.44-0.08 2.64-0.23 3 0-1.53-0.46-4.5-4.49-3-9-5.61 0.54-10.4-1.51-16-1z" fill="#7c7f82"/>
  <path d="m290 135h5c-1.92-4.11 0.24-9.41-6-9 0 2.17-0.96 7.48 1 9z" fill="#595151"/>
  <path d="m322 129c-0.18 3.4-0.2 4.44 2 6h9c-3.28-3.08-1.08-11.7-9-9 0.39 2.31 2.85 7.75-1 8-0.12-2.78 0.57-5.88-1-8 0 0.99 0.05 2.01 0 3z" fill="#4b4e51"/>
  <path d="m429 127c1.89 2.42 4.14 7.35 5 10-0.48-3.34-3.06-8.3-5-10z" fill="#70bbe5"/>
  <path d="m276 132c0.03 0.08 0.98 3.42 1 3 1.38-1.08 4.05-2.66 5-4-0.07-0.35-0.97-0.79-1-1-2.01 1.97-2.84-1.46-5-1 1.55 0.95 0 2.55 0 3z" fill="#a84949"/>
  <path d="m200 159c2.04 4.63 4.32 9.32 8 13 4.41 4.41 11.02 8.61 17 10 12.02 1.09 23.03-9.1 24-22 3.27-0.64 4.8-2.39 4-6 7.57-0.21 10.47-9.47 16-10-1-2.44 1.25-8.65 4-6 0.48-0.09 1.5-0.03 2 0 0.12 0.07 0.97-1.97 1-2-5.71-10.82-18.17 0.26-26.77-0.77-8.59-1.03 0.56 12.37-8.23 5.77-0.06 6.01-4.93 9.24-9.23 12.77s-3.65 10.87-8.77 11.23c0.45 3.72 3.55 6.24-2 7 0.24 2.48 1.74 4.56 2 7-9.72-2.2-18.28-11.53-23-20z" fill="#870605"/>
  <path d="m277 135c-0.27 0.21-0.75 0.75-1 1-0.03 0.03-0.88 2.07-1 2h7c-0.34-2.26 0.46-4.76 0-7-0.95 1.34-3.62 2.92-5 4z" fill="#d58a8f"/>
  <path d="m350 137c-0.21 2.44-0.56 10.61 1 10-1.24-1.32 0-10.01 0-12v-1c-1.23-0.6-0.98 2.74-1 3z" fill="#677088"/>
  <path d="m351 135c0.53 1.04 1.86 3.98 2 5 0.22-1.5 1.81-4.02 2-6h-1c-0.39 0-2.76-0.26-3 0z" fill="#243c6b"/>
  <path d="m351 147c0.42-0.16 1.76-0.57 2-1 0.56-0.99 0.16-4.84 0-6-0.14-1.02-1.47-3.96-2-5 0 1.99-1.24 10.68 0 12z" fill="#010828"/>
  <path d="m225 182c2.93 0.68 6.93 1.21 10 1 0.5-0.03 1 0 1 0 8.23-11.77 21.41-19.63 31-30 3.59-3.89 1.07-10.16 4-13-0.34-0.68 1.52-1.91 2-2-2.75-2.65-5 3.56-4 6-5.53 0.53-8.43 9.79-16 10 0.8 3.61-0.73 5.36-4 6-0.97 12.9-11.98 23.09-24 22z" fill="#660a09"/>
  <path d="m267 153c-0.02 0.04-0.15 1.97-1 3 1.39-0.7 2.34-1.12 4-1 0.5 0.04 1 0 1 0 0-3.9-1.52-11.88 1-15 0 0-0.74-0.25-1 0-2.93 2.84-0.41 9.11-4 13z" fill="#6a3337"/>
  <path d="m271 155c0 4.27-0.83 10.97 0 15s-2.22 11.86 0 15c4.88 4.83 17.1-0.54 24 1s17.35-0.75 25 0 17.45-0.82 25 1c-7.83 1.96-18.02 0.87-26 1 1.56 4.13-8.03 2.98-14.03 2.98-5.99 0-16.89 0.32-23.97 0.02s-13.83 0.41-20-2c1.24-1.92 2.86-4.8-1-4 1.55-6.56 0.57-13.67 1-20-2.1-3.66-9.18 5.66-12.25 8.75s-14.25 11.14-4.75 11.25h-9c-0.95 1.78-1.88 3.29-3 5-0.99 2.02-2.47 7.58-5 10-0.26 0.25-0.89 0.65-1 1 0.42 2.99-1.5 6.93-2 8-0.52 1.88-1.8 4.67-2 7 0.14 15.78 1.98 33.47 1 50-2.33-14.09-0.34-30.15-1-45-1.53 14.41-1.39 31.19 0 46 2.89 2.04 9.75-1.53 13 0-7.38-0.36-3.93-3.06-0.87-5.92s8.07-5.44 11.87-8.08c-0.4-3.34-1.51-9.98-1.77-14.23-0.27-4.24 4.25-10.77 7.07-14.47 2.83-3.7 7.6-6.03 9.95-10.05 2.34-4.03 12.96-4.26 15.45 0.05 2.48 4.32 12.46 7.16 7.3 9.7 2.08 0.08 5.28-0.69 6 2 0.14 0.46 0 1 0 1 2.62-4.88 12.55-1.01 18-2s15.16 0.74 21 0v3c0.95 1.52 0.6 3.76 2 5-1.26-8.93 10.64-10.76 13-18 2.3 0.4 5.37 0.46 7 2 11.47 5.55 7.88 14.84 0 21-6.29 4.91-11.31 8.33-19 3 2.23 2.2 14.72 10.4 13 14 4.36-1.4 12.31-2.57 16-5 3.2-2.11 4.02-9.6 10-7 1.94 9.85-2.01 23.83 6 28-3.03-0.26-6.37 0.74-9-1-0.73 2.7-1.99 2.61-4 4 5.87-0.56 6.47 7.49 1.92 9.92-4.56 2.42-12.61-0.4-16.92 2.08 1.66 0.08 3.34-0.06 5 0-2.52 0.96-10.33 2.67-11 0-2.1 0.07-3.5 0.6-5 1-3.11 0.83-7.22 1.45-11 1v11c-1.46-0.78-0.62-3.89-3-2 0 0.87 0.22 2.16 0 3 4.18-0.53 7.98 2.31 12 0-0.93-1.8 2.81-5.07 2-8 1.6 0.53 0.72 2.75 1 4 1.25-1.99 3.48-4.15 3-7 2.21 3.42 0.42 8.82 1 13 7.17 0.66 15.66-1.33 22 1 6.18-0.5 18.15-5.34 24-1 0.25-0.25 1 0 1 0 1.86 0 4.18 0.38 6 0-0.05-0.5 0-1 0-1-1.86-27.23 3.68-65.53-3.07-90.93-6.75-25.39-26.59-34.13-43.93-51.07-0.18 0.96 0.23 2.05 0 3-0.28 2.26 1.22 10.08 1 13s-0.78 11.68-1 11c-0.93 1.87-2.62-9.53-2-13s0.44-12.01 0-16 1.78-12.4 0-16c-2.79-3.95-13.14 0.11-18-1s-13.4 0.49-19 0-13.16 0.2-19 0-12.12 0-18 0h-1c-2.52 3.12-1 11.1-1 15m124 118c-4.33 2.83-9.89-1.3-15 0 4.28-2.58 10.21-0.15 15 0z" fill="#898a8a"/>
  <path d="m198 151c-0.22-3.25-0.18-6.75 0-10-0.55 3.4-0.62 6.53 0 10z" fill="#ac7974"/>
  <path d="m236 183c2.46 1.57 10.75-9.97 14.25-12.75 3.49-2.79 12.51-10.34 15.75-14.25 0.85-1.03 0.98-2.96 1-3-9.59 10.37-22.77 18.23-31 30z" fill="#a67372"/>
  <path d="m266 156c-3.24 3.91-12.26 11.46-15.75 14.25-3.5 2.78-11.79 14.32-14.25 12.75 0 0-0.5-0.03-1 0-0.33 0.3 1.49 1.55 1 2h8c-9.5-0.11 1.68-8.16 4.75-11.25s10.15-12.41 12.25-8.75c0.21-1.34 2.82-3.31 1-5 2.77 0.92 3.9-2.19 6-3 1.58-1.08 1.27 0.2 2-2-1.66-0.12-2.61 0.3-4 1z" fill="#776562"/>
  <path d="m268 157c-0.15 0.46 3.14 5.47 2 8s0.21 7.24 0 10-0.86 8.16 1 10c-2.22-3.14 0.83-10.97 0-15s0-10.73 0-15c0 0-0.5 0.04-1 0-0.73 2.2-0.42 0.92-2 2z" fill="#41403e"/>
  <path d="m261 165c-0.43 6.33 0.55 13.44-1 20 3.86-0.8 2.24 2.08 1 4 6.17 2.41 12.92 1.7 20 2s17.98-0.02 23.97-0.02c6 0 15.59 1.15 14.03-2.98 7.98-0.13 18.17 0.96 26-1-7.55-1.82-17.35-0.25-25-1s-18.1 1.54-25 0-19.12 3.83-24-1c-1.86-1.84-1.21-7.24-1-10s-1.14-7.47 0-10-2.15-7.54-2-8c-2.1 0.81-3.23 3.92-6 3 1.82 1.69-0.79 3.66-1 5z" fill="#686967"/>
  <path d="m349 186c0.22 0.68 0.78-8.08 1-11s-1.28-10.74-1-13c-1.64 6.8 3.07 17.82 0 24z" fill="#6b6c6e"/>
  <path d="m235 185h1c0.49-0.45-1.33-1.7-1-2-3.07 0.21-7.07-0.32-10-1-5.98-1.39-12.59-5.59-17-10v4c8.26 1.77 16.58 9.7 27 9z" fill="#deb6b6"/>
  <path d="m227 200c2.53-2.42 4.01-7.98 5-10-2.01 3.08-3.35 6.65-5 10z" fill="#5c5c5c"/>
  <path d="m224 209c0.5-1.07 2.42-5.01 2-8-0.83 2.66-1.26 5.35-2 8z" fill="#626262"/>
  <path d="m222 267c0.62 6.62-2.32 22.32 0.08 27.92 2.41 5.59 20.65 1.97 25.92 2.08 8.17 0.16 18.83 2.08 27 2 0.98-0.15 2.02 0.12 3 0-5.13-1.55-2.05-8.8-4-13-2.19 0.48-10.12-0.51-4-1-5.73-0.82-11.7 0.22-17.67-2.33s-2.49-9.32 2.67-10.67c0.35-0.09 0.78-0.96 1-1-10.64-1.38-12.05-11.25 0-11-0.24-0.19 0-1 0-1-4.88-2.61-7.39-7.11-2-11 3.2-2.31 6.06-1.53 10-1 0.01 1.63-1.28 2.51 0 4 0.43 0.17 1 0 1 0 3.58-2.76-0.62-3.36-1-6 9.33-4.42 16.23-14.14 26-19-0.72-2.69-3.92-1.92-6-2 5.16-2.54-4.82-5.38-7.3-9.7-2.49-4.31-13.11-4.08-15.45-0.05-2.35 4.02-7.12 6.35-9.95 10.05-2.82 3.7-7.34 10.23-7.07 14.47 0.26 4.25 1.37 10.89 1.77 14.23-3.8 2.64-8.81 5.22-11.87 8.08s-6.51 5.56 0.87 5.92c-3.25-1.53-10.11 2.04-13 0m49-52c11.59 3.31 7.01 23.95-5.22 20.22-12.24-3.73-8.22-24.05 5.22-20.22z" fill="#6d6c6b"/>
  <path d="m271 215c-13.44-3.83-17.46 16.49-5.22 20.22 12.23 3.73 16.81-16.91 5.22-20.22m-1 4c3.65 1.33 1.05 8.02-3 6-4.06-2.03-1.31-7.58 3-6z" fill="#090a0a"/>
  <path d="m329 228c1.92 5.93-1.48 8.56 3 13 7.69 5.33 12.71 1.91 19-3-16.23 2.87-16.39-23.9 0-21-1.63-1.54-4.7-1.6-7-2-2.36 7.24-14.26 9.07-13 18-1.4-1.24-1.05-3.48-2-5z" fill="#6b6c6d"/>
  <path d="m222 221c0.66 14.85-1.33 30.91 1 45 0.98-16.53-0.86-34.22-1-50-0.14 1.64 0 3.35 0 5z" fill="#717170"/>
  <path d="m351 238c7.88-6.16 11.47-15.45 0-21-16.39-2.9-16.23 23.87 0 21m2-17c3.15 1.97-0.39 8.8-4.08 6.07s0.09-8.57 4.08-6.07z" fill="#0a0b0c"/>
  <path d="m270 219c-4.31-1.58-7.06 3.97-3 6 4.05 2.02 6.65-4.67 3-6z" fill="#b9b9b9"/>
  <path d="m353 221c-3.99-2.5-7.77 3.34-4.08 6.07s7.23-4.1 4.08-6.07z" fill="#bfbec1"/>
  <path d="m290 227c-0.44 2.69-1.63 5.38-2 8 0.02 0.58 1.97 2.72 1 4 9.77-4.55 23.39 0.94 35-1v20c5.71-0.58 13.69-0.66 21-3 1.72-3.6-10.77-11.8-13-14-4.48-4.44-1.08-7.07-3-13v-3c-5.84 0.74-15.55-0.99-21 0s-15.38-2.88-18 2z" fill="#bbbcbf"/>
  <path d="m265 251c1.71 0.58 3.28 1.42 5 2 0.38-3.52 12.87-16.13 15-14 0.92 0.92-10.64 11.54-13 13-0.32 0.2-0.74 0.88-1 1 5.44 0.89 10.4 2.37 16 3 3.43-2.3 0.42-16.87 1-21 0.37-2.62 1.56-5.31 2-8 0 0 0.14-0.54 0-1-9.77 4.86-16.67 14.58-26 19 0.38 2.64 4.58 3.24 1 6z" fill="#565755"/>
  <path d="m287 256c1.39 0.16 5.83 1.12 7 1 4.47-0.47 8.02-3.17 13-3s7.61 3.32 12 4c1.48 0.23 3.51 0.15 5 0v-20c-11.61 1.94-25.23-3.55-35 1 0.97-1.28-0.98-3.42-1-4-0.58 4.13 2.43 18.7-1 21z" fill="#9a9a9c"/>
  <path d="m270 253c0.45 0.15 1 0 1 0 0.26-0.12 0.68-0.8 1-1 2.68-5.71 8.55-9.04 13-13-2.13-2.13-14.62 10.48-15 14z" fill="#3a3937"/>
  <path d="m272 252c2.36-1.46 13.92-12.08 13-13-4.45 3.96-10.32 7.29-13 13z" fill="#757573"/>
  <path d="m361 250c13.96 0.94-4.61 17.93-12 14 5.66 1.83 21.26-8.03 19 6 2.63 1.74 5.97 0.74 9 1-8.01-4.17-4.06-18.15-6-28-5.98-2.6-6.8 4.89-10 7z" fill="#a2a2a4"/>
  <path d="m254 248c3.7-1.17 6.92 1.79 10 3-1.28-1.49 0.01-2.37 0-4-3.94-0.53-6.8-1.31-10 1z" fill="#959693"/>
  <path d="m256 259c3.97 0.3 9.22 2.56 12 5-3.93-1.27-8.56-2.24-12-4-12.05-0.25-10.64 9.62 0 11 3.28 0.43 7.38 0.48 10 2-2.41 0.02-8.47 0.84-11-1-5.16 1.35-8.64 8.12-2.67 10.67s11.94 1.51 17.67 2.33c4.36 0.62 8.53 0.91 13 1 3 0.06 6-0.05 9 0-2.71 10.99 2.23 18.64 14 16 3.97-2.8-0.4-14.57 0-18-11.47-1.36-24.23-16.95-12-27-1.17 0.12-5.61-0.84-7-1-5.6-0.63-10.56-2.11-16-3 0 0-0.55 0.15-1 0-1.72-0.58-3.29-1.42-5-2 0 0-0.57 0.17-1 0-3.08-1.21-6.3-4.17-10-3-5.39 3.89-2.88 8.39 2 11z" fill="#c3c0bd"/>
  <path d="m345 255c-7.31 2.34-15.29 2.42-21 3-1.49 0.15-3.52 0.23-5 0 10.39 9.51 0.51 22.08-9 26 0.38 4.22-1.84 12.27 0 16 3.63 5.02 10.47 0.44 14 0 0.22-0.84 0-2.13 0-3v-10h14c1.5-0.4 2.9-0.93 5-1 1.98-0.07 4.02-0.09 6 0 4.31-2.48 12.36 0.34 16.92-2.08 4.55-2.43 3.95-10.48-1.92-9.92 2.01-1.39 3.27-1.3 4-4 2.26-14.03-13.34-4.17-19-6 7.39 3.93 25.96-13.06 12-14-3.69 2.43-11.64 3.6-16 5z" fill="#eae9e9"/>
  <path d="m294 257c-12.23 10.05 0.53 25.64 12 27 0.49 0.06 1.5 0 2 0h2c9.51-3.92 19.39-16.49 9-26-4.39-0.68-7.02-3.83-12-4s-8.53 2.53-13 3m26 9c-3.02-0.55-3.97-4.8-6-7 3.32 0.31 5.14 4.27 6 7z" fill="#0e0e0e"/>
  <path d="m256 260c3.44 1.76 8.07 2.73 12 4-2.78-2.44-8.03-4.7-12-5 0 0-0.24 0.81 0 1z" fill="#999592"/>
  <path d="m320 266c-0.86-2.73-2.68-6.69-6-7 2.03 2.2 2.98 6.45 6 7z" fill="#bfbfc0"/>
  <path d="m255 272c2.53 1.84 8.59 1.02 11 1-2.62-1.52-6.72-1.57-10-2-0.22 0.04-0.65 0.91-1 1z" fill="#9a9691"/>
  <path d="m395 273c-4.79-0.15-10.72-2.58-15 0 5.11-1.3 10.67 2.83 15 0z" fill="#696968"/>
  <path d="m306 302c4.3-2.12 1.62-13.77 2-18-0.5 0-1.51 0.06-2 0-0.4 3.43 3.97 15.2 0 18z" fill="#93928e"/>
  <path d="m306 302c-11.77 2.64-16.71-5.01-14-16-3-0.05-6 0.06-9 0-1.63 0.16-4.67 1.94-7 1-0.96 5.01 2.07 8.83 4 13h1c2-0.19 5.83-0.67 7 1 2.56 3.66-2.16 11.37 1 15 2.84-2.58 11.83 1.07 16 0s11.48-0.34 16-1v-12c2.19 3.09 0.43 8.16 1 12 1.94-2.56 5.72-1.71 6-6 3.59-0.44 8.68-1.84 10-5 6.64 1.06 16.46-3.43 25 0 0.25 0.26 0 1 0 1 0.35 0.6 1.25 1.67 2 2v-4c-6.34-2.33-14.83-0.34-22-1-0.58-4.18 1.21-9.58-1-13 0.48 2.85-1.75 5.01-3 7-1.05 1.68-1.2 2.97-3 4-4.02 2.31-7.82-0.53-12 0-3.53 0.44-10.37 5.02-14 0-2.63-3.64-0.58-11.37-1-16h-1c-0.38 4.23 2.3 15.88-2 18z" fill="#706e6b"/>
  <path d="m310 300c-1.84-3.73 0.38-11.78 0-16h-1c0.42 4.63-1.63 12.36 1 16z" fill="#8c8b88"/>
  <path d="m275 299c-3.79 0.59-8.16 0-12 0 0.74 0.16 1.74 0.89 3 1 4.59 0.39 9.39 0 14 0-1.93-4.17-4.96-7.99-4-13 2.33 0.94 5.37-0.84 7-1-4.47-0.09-8.64-0.38-13-1-6.12 0.49 1.81 1.48 4 1 1.95 4.2-1.13 11.45 4 13-0.98 0.12-2.02-0.15-3 0z" fill="#58524f"/>
  <path d="m349 286c-1.98-0.09-4.02-0.07-6 0 0.67 2.67 8.48 0.96 11 0-1.66-0.06-3.34 0.08-5 0z" fill="#61605d"/>
  <path d="m324 297c2.38-1.89 1.54 1.22 3 2v-11c3.78 0.45 7.89-0.17 11-1h-14z" fill="#6b6a69"/>
  <path d="m336 300c1.8-1.03 1.95-2.32 3-4-0.28-1.25 0.6-3.47-1-4 0.81 2.93-2.93 6.2-2 8z" fill="#cccbc7"/>
  <path d="m249 304c-0.13-1.66 0.1-3.34 0-5 1.9 2.26 0.49 6.27 2 9 2.08-2.1 0.5-6.15 1-9h5c1.96-0.18 4.03 0 6 0 3.84 0 8.21 0.59 12 0-8.17 0.08-18.83-1.84-27-2-0.73 2.47 0.57 5.18 1 7z" fill="#86736d"/>
  <path d="m249 304c0.34 1.44-0.16 2.8 1 4 0.26 0.27 1.9 0.81 2 1 4.61 0.61 4.84 0.61 6 5 0.13-3.47 0.13-6.84-1-10-0.14-1.65 0.11-3.34 0-5h-5c-0.5 2.85 1.08 6.9-1 9-1.51-2.73-0.1-6.74-2-9 0.1 1.66-0.13 3.34 0 5z" fill="#825750"/>
  <path d="m257 304c7.74 1.18 15.16 2.88 25 2 0.61 4.26-0.83 7.92-1 12h10c-0.04 0 0-1 0-1-1.42-0.18-1.14-0.01-2-1-3.16-3.63 1.56-11.34-1-15-3.54-0.69-0.59 4.29-3 5-1.31-1.73-2.62-3.61-4-5-4.99 0.45-10.77 0.05-15-1-1.26-0.11-2.26-0.84-3-1-1.97 0-4.04-0.18-6 0 0.11 1.66-0.14 3.35 0 5z" fill="#290805"/>
  <path d="m281 301c-0.23-0.35 0-1 0-1h-1c-4.61 0-9.41 0.39-14 0 4.23 1.05 10.01 1.45 15 1z"/>
  <path d="m281 301c1.38 1.39 2.69 3.27 4 5 2.41-0.71-0.54-5.69 3-5-1.17-1.67-5-1.19-7-1 0 0-0.23 0.65 0 1z" fill="#55301b"/>
  <path d="m400 301c10.18 0.14 3.05 6.54 7.78 10.22 4.72 3.69 9.14 1.92 8.22 9.78s-1.06 11.78 1 18c-1.99-9.2 6.04-28.92-9-28 1.39-7.67-1.68-10.85-8-10z" fill="#e1d3bc"/>
  <path d="m365 303v4c-0.75-0.33-1.65-1.4-2-2-0.46 4.25 2.9 9.18-1 12-5.05 3.65-13.85 0.06-20 0s-15.38 0.46-21 1h9c3.42 0 7.31 0.74 10 1 5.89 0 21.23 2.84 25-1 0.26-3.39-0.67-15.02 4.08-15.92 4.76-0.89 14.78-0.54 19.92-0.08-5.85-4.34-17.82 0.5-24 1z" fill="#b28f8b"/>
  <path d="m396 302c0.03 0.35 0.71 1.06 1 1 4.14-0.88 10.09-2.15 9 5-1.1 7.15 6.75 1.97 8.9 7.1 2.15 5.14-4.31 28.49 4.1 27.9-1.85-0.49-1.55-2.63-2-4-2.06-6.22-1.92-10.14-1-18s-3.5-6.09-8.22-9.78c-4.73-3.68 2.4-10.08-7.78-10.22-0.84-0.01-3.3-0.42-4 0 0 0-0.05 0.5 0 1z" fill="#ecd595"/>
  <path d="m365 318c0.25-0.25 1 0 1 0 0.25-0.25 0-1 0-1 3.67-3.59 1.34-9.4 2-14h19c0.5 0 1.84 0.23 2 0v-1c-5.14-0.46-15.16-0.81-19.92 0.08-4.75 0.9-3.82 12.53-4.08 15.92z" fill="#9d706f"/>
  <path d="m389 303v1c3.11 4.2 0.25 10.88 8 12-3.61-1.08-0.88-5.35-2-8s-3.7-4.08-5-6c0 0-0.75-0.25-1 0z" fill="#f4881c"/>
  <path d="m397 316c0.96 0.14 2.05-0.21 3 0 0.11 0.02 2.01 1.03 2 1 0.89-1.12-4.35-2.99-5-2 3.37-4.49-3.09-9.39 0-12-0.29 0.06-0.97-0.65-1-1-1.82 0.38-4.14 0-6 0 1.3 1.92 3.88 3.35 5 6s-1.61 6.92 2 8z" fill="#f0aa34"/>
  <path d="m397 303c-3.09 2.61 3.37 7.51 0 12 0.65-0.99 5.89 0.88 5 2 1.48 3.22-0.29 10.49 0 14s1.43 11.3-2 13c-3.21 1.59-13.78 0.69-17 1 5.87 0.22 10.42 3.09 16 2 1.81 9.18-1.35 15.02 1 22-14.47-0.24-28.39 1.75-43 1 2.1 2.08 6.15 0.5 9 1h17c3.43-0.36 7.9-1 12-1h7c-0.22-2.42-0.68-6.68 0-9 0.52-3.71 2.85 4.37 2 8s0.36 11 0 15h27c6.5 0 12.39-1 19-1h1c0.26-0.12 0.95-0.77 1-1 0-9.53 2.76-22.24-4-29-5.29-3.71-2.18-11.45-11-11s-13.21-1.08-13 9c1.12-1.65 1.19-3.73 1-6 3.32-0.53 5.88 1.64 9 2-1.72 2.27-0.73 5.34-1 8-3.18-0.41-5.72 1.69-9 1 0.62-1.94-1.2-3.13-1-5-0.02-2.19 0.1-6.54-2-8-0.5-0.02-1.5-0.04-2 0-8.41 0.59-1.95-22.76-4.1-27.9-2.15-5.13-10 0.05-8.9-7.1 1.09-7.15-4.86-5.88-9-5m15 43c1.88 3.66 1.29 7.1 1 11h-10c0.42-3.98-0.99-8.44 1-12 2.51 0.8 5.19 1.28 8 1z" fill="#f7cf21"/>
  <path d="m289 316c0.86 0.99 0.58 0.82 2 1 5.08 0.63 11.54 0.57 16 1h14c5.62-0.54 14.85-1.06 21-1s14.95 3.65 20 0c2.26-3.23-2.14-9.98 1-13-8.54-3.43-18.36 1.06-25 0-1.32 3.16-6.41 4.56-10 5-0.28 4.29-4.06 3.44-6 6-0.57-3.84 1.19-8.91-1-12v12c-4.52 0.66-11.83-0.07-16 1s-13.16-2.58-16 0z" fill="#878482"/>
  <path d="m366 317c0.25-0.25 1 0 1 0h1c1.19-1.02 1.78-2.84 4-2v-11c1.57-0.39 4.22 0.94 5-1h-9c-0.66 4.6 1.67 10.41-2 14z" fill="#4b0906"/>
  <path d="m368 317c2.99 0 6.01 0.11 9 0 3.83-1.91 1.24-8.86 4-12 2.14 0.17 4.84-0.11 6-2h-10c-0.78 1.94-3.43 0.61-5 1v11c-2.22-0.84-2.81 0.98-4 2z" fill="#8a0705"/>
  <path d="m377 317c3.91-0.15 7.12-0.84 11-1-0.56-3.6-0.44-8.28 1-12v-1c-0.16 0.23-1.5 0-2 0-1.16 1.89-3.86 2.17-6 2-2.76 3.14-0.17 10.09-4 12z" fill="#d21213"/>
  <path d="m252 309c0.2 0.4 0 1 0 1-0.32 2.99-0.09 5.83 2 8 1.26-0.39 4.46-2.75 3 0 9.83 3.21 22.17 0.18 33 1s23.89-0.02 34-1h-43c0.17-4.08 1.61-7.74 1-12-9.84 0.88-17.26-0.82-25-2 1.13 3.16 1.13 6.53 1 10-1.16-4.39-1.39-4.39-6-5z" fill="#640b09"/>
  <path d="m362 317c3.9-2.82 0.54-7.75 1-12 0 0 0.25-0.74 0-1-3.14 3.02 1.26 9.77-1 13z" fill="#c0bbb8"/>
  <path d="m377 317c-2.99 0.11-6.01 0-9 0h-1c3.12 2.31 11.86 1.29 16 1s14.21 1.88 17-1c-0.24-0.32 0-1 0-1-0.95-0.21-2.04 0.14-3 0-7.75-1.12-4.89-7.8-8-12-1.44 3.72-1.56 8.4-1 12-3.88 0.16-7.09 0.85-11 1z" fill="#ef533a"/>
  <path d="m202 356c2.67-2.75-0.47-5.89 4.08-7.92 4.56-2.02 6.25 1.19 5.92-7.08s0.25-17.63 0-26c8.42 4.06 6.13-5.31 9.26-7.74 3.12-2.44 12.92 0.46 15.74 0.74 0.3 0.22 0.77 0.71 1 1 1.31 1.65 0.99 3.73 1 6 0.59-0.49 2.41 0.49 3 0 0-1.16 0.32-2.89 0-4-3.86-6.8-25.01-9.42-23 2-16.48-3.01-6.12 22.81-9 33-8.14-2.17-5.51 6.34-8 10z" fill="#ddceb9"/>
  <path d="m202 356c-6.06 6.24-4 18.48-4 29 0.39 0.63 2.34 0.58 3 2-0.11-6.11 1.53-14.09 1-21-0.11-1.41-0.43-1.71-1-4-0.56-2.3 2.64-2.26 3-3 1.35-2.76 0.11-6.8 2-9 0.65-0.75 4.84-2.08 6-2 7.03-5.49-1.11-24.04 2-32 2.73 0.49 5.02-0.3 7-2 0.38-1.93-0.28-4.06 0-6h16c-2.82-0.28-12.62-3.18-15.74-0.74-3.13 2.43-0.84 11.8-9.26 7.74 0.25 8.37-0.33 17.73 0 26s-1.36 5.06-5.92 7.08c-4.55 2.03-1.41 5.17-4.08 7.92z" fill="#cbab74"/>
  <path d="m221 314c-0.82 4.19-0.35 6.1-6 5v29c3-0.5 5.54 0.57 8 2-0.34-1.48-1.52-3.46-3-4 2.04-2.32 3.79-4.63 3-8 1.94 3.35 3.55-0.09 1-2 5.35-0.98 6.52-6.74 4-11 3.63-0.57 5.64-6.73 12-5-0.22-0.3-0.65-0.95-1-1-3.32-0.48-7.08 0.95-10-1 1.71-2.03 0.31-4.96 2-7 2.45 0.09 5.61 0.23 7-2-0.23-0.29-0.7-0.78-1-1h-16c-0.28 1.94 0.38 4.07 0 6z" fill="#ad6b06"/>
  <path d="m242 311c3.09 0.41 6.66 2.8 9 5-0.46-2.05-0.17-4.62 1-6 0 0 0.2-0.6 0-1-0.1-0.19-1.74-0.73-2-1 0.27-0.16-0.3 3.67-3 2s-3.36 0.67-5 1z" fill="#ad8078"/>
  <path d="m239 319c-0.42-0.83 0-3.05 0-4-0.01-2.27 0.31-4.35-1-6-1.39 2.23-4.55 2.09-7 2-1.69 2.04-0.29 4.97-2 7 2.92 1.95 6.68 0.52 10 1z" fill="#914806"/>
  <path d="m251 316c0.99 0.94 3.71 3.98 4 5 0.24-0.97 1.88-1.98 2-3 1.46-2.75-1.74-0.39-3 0-2.09-2.17-2.32-5.01-2-8-1.17 1.38-1.46 3.95-1 6z" fill="#984e44"/>
  <path d="m242 315c0 1.3 0.16 2.71 0 4-0.5 4.12-2.38 10.65-1 15s-4.58 10.77 0 13h1c-1.27-2.17-1.46-4.85 0-7 3.38 1.06 2.57 4.61 4 7 1.17 4.44 1.2 9.21 1 14 1.71 0.19 5.18-0.91 6 1 0.28 0.66 0 2.27 0 3 0.16-0.46 1.86-1.61 2-2v-14c-3.28-5.74-1.61-21.5 0-28-0.29-1.02-3.01-4.06-4-5-2.34-2.2-5.91-4.59-9-5 0.32 1.11 0 2.84 0 4z" fill="#94330b"/>
  <path d="m212 348c5.6 0.37 11.02 6.94 8 13 10.52 2.19 22.06 0.44 33 1-0.82-1.91-4.29-0.81-6-1-1.65-0.18-3.35 0.14-5 0 1.35-3.48 1.52-7.27 2-11-4.79-1.45-10.24-0.36-15-2-0.84 0.73-0.85 0.77-1 2 0.92 2.83 5.95 9.8 0 11-1.6 0.32-3.38-0.24-5 0v-11c-2.46-1.43-5-2.5-8-2v-29c5.65 1.1 5.18-0.81 6-5-1.98 1.7-4.27 2.49-7 2-3.11 7.96 5.03 26.51-2 32z" fill="#d2941e"/>
  <path d="m239 319c0.35 0.05 0.78 0.7 1 1 0.13-0.03 2-1 2-1 0.16-1.29 0-2.7 0-4-0.59 0.49-2.41-0.49-3 0 0 0.95-0.42 3.17 0 4z" fill="#ca864c"/>
  <path d="m400 317c1.79 2.42 1.46 9.82 1 13s1.86 11.98-1 14c3.43-1.7 2.29-9.49 2-13s1.48-10.78 0-14c0.01 0.03-1.89-0.98-2-1 0 0-0.24 0.68 0 1z" fill="#e7781f"/>
  <path d="m291 318h16c-4.46-0.43-10.92-0.37-16-1 0 0-0.04 1 0 1z" fill="#6c504e"/>
  <path d="m366 318c-1.69 6.77-13.9 7.54-19.03 12.97s-17.09 5.05-24.97 5.03-16.85 3.25-25.03 4.97c-8.18 1.73-15.89 6.31-24.97 5.03 13.79 3.42 30.2-2.77 44 1 11.08 0 21.74-1 33-1 2.75-0.27 6.58-1 10-1 7.98 0 16.03-0.3 24 0 3.22-0.31 13.79 0.59 17-1 2.86-2.02 0.54-10.82 1-14s0.79-10.58-1-13c-2.79 2.88-12.86 0.71-17 1s-12.88 1.31-16-1c0 0-0.75-0.25-1 0 0 0 0.25 0.75 0 1z" fill="#d70d0e"/>
  <path d="m255 321c-1.61 6.5-3.28 22.26 0 28 15.6-1.4 31.29-1 47-1 2.75-0.27 6.58-1 10-1h4c-13.8-3.77-30.21 2.42-44-1 9.08 1.28 16.79-3.3 24.97-5.03 8.18-1.72 17.15-4.99 25.03-4.97s19.84 0.4 24.97-5.03 17.34-6.2 19.03-12.97c0 0-0.75-0.25-1 0-3.77 3.84-19.11 1-25 1-3.43 0-7.31-0.74-10-1h-6c-10.11 0.98-23.17 1.82-34 1s-23.17 2.21-33-1c-0.12 1.02-1.76 2.03-2 3z" fill="#ac0806"/>
  <path d="m340 319c-2.69-0.26-6.58-1-10-1 2.69 0.26 6.57 1 10 1z" fill="#8f4d4b"/>
  <path d="m240 320c-6.36-1.73-8.37 4.43-12 5 2.52 4.26 1.35 10.02-4 11 2.55 1.91 0.94 5.35-1 2 0.79 3.37-0.96 5.68-3 8 1.48 0.54 2.66 2.52 3 4v11c1.62-0.24 3.4 0.32 5 0 0.33-3.63-0.44-7.39 0-11 0.15-1.23 0.16-1.27 1-2 2.42-2.11 8.66-1 12-1-4.58-2.23 1.38-8.65 0-13s0.5-10.88 1-15c0 0-1.87 0.97-2 1z" fill="#9c5804"/>
  <path d="m242 347c0.95 0 3.17-0.42 4 0-1.43-2.39-0.62-5.94-4-7-1.46 2.15-1.27 4.83 0 7z" fill="#481f0c"/>
  <path d="m421 343c2.1 1.46 1.98 5.81 2 8 0 0.01 1 0 1 0-0.21-10.08 4.18-8.55 13-9s5.71 7.29 11 11c-4.71-4.71-0.98-11.48-9-12s-11.27 2.32-18 2z" fill="#ead6a8"/>
  <path d="m349 346c3.43 0 7.31-0.74 10-1-3.42 0-7.25 0.73-10 1z" fill="#d87f2f"/>
  <path d="m349 346c-11.26 0-21.92 1-33 1h-4c-2.84 0.39-6.51 1-10 1-15.71 0-31.4-0.4-47 1v1c3.15 4.26 1.51 19.36 1 25 3.32 2.46 11.65 1 16 1 2.42-0.23 5.9-1 9-1h8c2.42-0.23 5.91-1 9-1 22.87 0 44.97-2 68-2-0.04 0 0-1 0-1-2.85-0.5-6.9 1.08-9-1 14.61 0.75 28.53-1.24 43-1-2.35-6.98 0.81-12.82-1-22-5.58 1.09-10.13-1.78-16-2-7.97-0.3-16.02 0-24 0-2.69 0.26-6.57 1-10 1z" fill="#f3bd0f"/>
  <path d="m412 346c-2.81 0.28-5.49-0.2-8-1-1.99 3.56-0.58 8.02-1 12h10c0.29-3.9 0.88-7.34-1-11z" fill="#f3a710"/>
  <path d="m424 351s-1 0.01-1 0c-0.2 1.87 1.62 3.06 1 5 3.28 0.69 5.82-1.41 9-1 0.27-2.66-0.72-5.73 1-8-3.12-0.36-5.68-2.53-9-2 0.19 2.27 0.12 4.35-1 6z" fill="#f4a30e"/>
  <path d="m229 348c4.76 1.64 10.21 0.55 15 2-0.48 3.73-0.65 7.52-2 11 1.65 0.14 3.35-0.18 5 0 0.2-4.79 0.17-9.56-1-14-0.83-0.42-3.05 0-4 0h-1c-3.34 0-9.58-1.11-12 1z" fill="#b8740f"/>
  <path d="m302 348c3.49 0 7.16-0.61 10-1-3.42 0-7.25 0.73-10 1z" fill="#da8335"/>
  <path d="m206 350c-0.17 0.1 4.22 1.95 5 1 0.17 3.5 3.19 6.03 2 10-2.76-0.84-8.57 1.96-9-2-0.36 0.74-3.56 0.7-3 3 0.57 2.29 0.89 2.59 1 4-0.82-2.55 1.92 4.41 1 8s0.27 9.19 0 13c3.12 6.44 18.18-0.7 24.02 1.02 5.85 1.73 21.51-3.34 25.98-0.02v-23c0-0.73 0.28-2.34 0-3-10.94-0.56-22.48 1.19-33-1 3.02-6.06-2.4-12.63-8-13-1.16-0.08-5.35 1.25-6 2z" fill="#efb50d"/>
  <path d="m204 359c0.43 3.96 6.24 1.16 9 2 1.19-3.97-1.83-6.5-2-10-0.78 0.95-5.17-0.9-5-1-1.89 2.2-0.65 6.24-2 9z" fill="#d59108"/>
  <path d="m228 361c5.95-1.2 0.92-8.17 0-11-0.44 3.61 0.33 7.37 0 11z" fill="#c5760f"/>
  <path d="m255 363v12c0.13 0.22 1 0 1 0 0.51-5.64 2.15-20.74-1-25z" fill="#c68e20"/>
  <path d="m402 361c-0.21 1.5 1 6.6 1 9v14c0.25-0.25 1 0 1 0 0.36-4-0.85-11.37 0-15s-1.48-11.71-2-8z" fill="#d2a20c"/>
  <path d="m402 370h1c0-2.4-1.21-7.5-1-9-0.68 2.32-0.22 6.58 0 9z" fill="#ae7b07"/>
  <path d="m253 365v8c0.16-0.46 1.86-1.61 2-2v-8c-0.14 0.39-1.84 1.54-2 2z" fill="#441a0e"/>
  <path d="m202 366c0.53 6.91-1.11 14.89-1 21 0.02 1.37 0.57 1.83 1 3 0.25-0.25 1 0 1 0-0.83-1.91-0.09-1.72 0-3 0.27-3.81-0.92-9.41 0-13s-1.82-10.55-1-8z" fill="#c0911c"/>
  <path d="m383 371c3.94 0 8.07 0.36 12 0 0.05 0 0-1 0-1-4.1 0-8.57 0.64-12 1z" fill="#a7ab37"/>
  <path d="m395 371c6.56-0.65 6.35 5.24 7 10 0-3.66 0.65-7.75-1-11h-6s0.05 1 0 1z" fill="#668b36"/>
  <path d="m402 381v4c0.13 0.22 1 0 1 0 0.25-0.25 0-1 0-1v-14h-2c1.65 3.25 1 7.34 1 11z" fill="#72650c"/>
  <path d="m253 373v16c2.34 3.17 1 10.85 1 15 0-0.04 1 0 1 0v-33c-0.14 0.39-1.84 1.54-2 2z" fill="#020100"/>
  <path d="m366 372c4.1 0 8.64-0.64 12-1h-12s-0.04 1 0 1z" fill="#748a26"/>
  <path d="m366 372c-23.03 0-45.13 2-68 2-2.42 0.23-5.91 1-9 1h-8c-2.42 0.23-5.9 1-9 1-4.35 0-12.68 1.46-16-1 0 0-0.87 0.22-1 0v28c7.2-0.65 14.77 0 22 0 2.45-0.24 5.82-1.46 9-1 0.35 0.05 0.74 0.88 1 1 0.41 0.19 1 0 1 0v-1c-0.86-1.26 11.44-2.95 16-2s13.34-1.89 19-1 13.06-0.83 19-1c5.95-0.16 13.87 0 20 0 3.06 0 6.33-0.53 9 1 0.38 0.22 1 0 1 0 4.89-3.62 16.71-2 23-2 1.86 0 4.18-0.38 6 0 1.88-3.3 1-8.24 1-12v-4c-0.65-4.76-0.44-10.65-7-10-3.93 0.36-8.06 0-12 0h-5c-3.36 0.36-7.9 1-12 1z" fill="#1c8146"/>
  <path d="m289 375c3.09 0 6.58-0.77 9-1-3.09 0-6.58 0.77-9 1z" fill="#8c9635"/>
  <path d="m272 376c3.1 0 6.58-0.77 9-1-3.1 0-6.58 0.77-9 1z" fill="#5e7728"/>
  <path d="m451 383c-0.81 5.66 2.91 20.09-1 24-1.56 1.56-4.72 1.05-7 1 0.24 0.2 0 1 0 1 0.25 0.25 1 0 1 0 5.11 0.48 6.16-1.83 9-3 1.14-2.7-1.84-7.08-1-11s0-8.98 0-13c-0.05 0.23-0.74 0.88-1 1z" fill="#cee3d3"/>
  <path d="m431 384c-2.42 0.23-5.91 1-9 1h-8c-3.1 0.3-7.19 1.34-11 1 0 7.56 0.68 15.47 0 23 6.21 1.3 14.41-1.32 20.07-0.93 5.67 0.4 15.2-3.89 19.93-0.07 2.28 0.05 5.44 0.56 7-1 1.83-2.61-0.8-8.71 0-12s-0.32-8.51 0-12c-6.61 0-12.5 1-19 1z" fill="#188a4a"/>
  <path d="m450 407c3.91-3.91 0.19-18.34 1-24h-1c-0.32 3.49 0.8 8.71 0 12s1.83 9.39 0 12z" fill="#76a386"/>
  <path d="m403 385c3.6-0.33 7.38 0 11 0h8c-0.04 0 0-1 0-1h-18s-0.75-0.25-1 0c0 0 0.25 0.75 0 1z" fill="#c4c53b"/>
  <path d="m422 385c3.09 0 6.58-0.77 9-1h-9s-0.04 1 0 1z" fill="#72952f"/>
  <path d="m201 387c-0.66-1.42-2.61-1.37-3-2 0.5 8.61-1.11 17.79 1 26 1.64-2.64 1.25-10.89 1-14s-0.01-12.17 1-10z" fill="#7a7c89"/>
  <path d="m401 397c-0.22 0.38 0 1 0 1 1.88 2.55 1 7.65 1 11 0.25-0.25 1 0 1 0 0.68-7.53 0-15.44 0-23v-1s-0.87 0.22-1 0c0 3.76 0.88 8.7-1 12z" fill="#0c3b22"/>
  <path d="m403 386c3.81 0.34 7.9-0.7 11-1-3.62 0-7.4-0.33-11 0z" fill="#618c29"/>
  <path d="m203 390c7.19-0.66 14.77 0 22 0 5.37-0.52 11.95-1 18-1h10v-1c-4.47-3.32-20.13 1.75-25.98 0.02-5.84-1.72-20.9 5.42-24.02-1.02-0.09 1.28-0.83 1.09 0 3z" fill="#d1c23f"/>
  <path d="m114 416c0-0.04 1 0 1 0 0.38-4.25 0-8.73 0-13 0-1.18-0.53-3.97 0-5 1.1-2.14 5.07-0.43 7-1-2.57-8.91 8.8-7.7 14-6-2.88-4.16-9.57-1.03-14-2-1.19 2.19-1.24 4.71-2 7-9.47-1.25-6 13.62-6 20z" fill="#a5bba7"/>
  <path d="m225 390c3.99 0 8.01 0.11 12 0 2.12-0.06 4.57-0.84 6-1-6.05 0-12.63 0.48-18 1z" fill="#85962a"/>
  <path d="m237 390c-10.22 1.32-23.06 1.99-34 1 0 6.82-1.41 15.35 0 22 2.14-0.86 2.78 2.54 7.02 1.02 4.24-1.51 4.96 0.16 10.98-0.02s14.9 0.04 21 0 4.96-0.33 10-1c-1.05-7.27-0.66-16.68 0-24h-9c-1.43 0.16-3.88 0.94-6 1z" fill="#198042"/>
  <path d="m252 413c0.05 0.35 0.88 0.74 1 1 2-6.22 0.59-18.44 0-25h-1c-0.66 7.32-1.05 16.73 0 24z" fill="#51946c"/>
  <path d="m253 414c1.76-2.39 1-6.85 1-10 0-4.15 1.34-11.83-1-15 0.59 6.56 2 18.78 0 25z" fill="#182b20"/>
  <path d="m115 398c3.93-0.84 7.33 0.36 6 5h-6c0 4.27 0.38 8.75 0 13 1.93 2.73 9.52 0.91 13 1s11.34 0.81 15 0c0.23-0.05 0.95-0.77 1-1-0.68-4.75 1.73-13.69 0-17-7.21 1.84-2.9-5.61-6-8-0.47-0.12-1.53 0.11-2 0-5.2-1.7-16.57-2.91-14 6-1.93 0.57-5.9-1.14-7 1m28 2c0.65 3.1-0.23 6.07-4 5 1.34-4.97 1.2-3.1 4-5z" fill="#256327"/>
  <path d="m202 391c0 5.79-2.3 21.21 2 24-0.43-0.45-0.87-1.4-1-2-1.41-6.65 0-15.18 0-22v-1s-0.75-0.25-1 0z" fill="#0b4d24"/>
  <path d="m203 391c10.94 0.99 23.78 0.32 34-1-3.99 0.11-8.01 0-12 0-7.23 0-14.81-0.66-22 0z" fill="#2e6c1d"/>
  <path d="m144 399c-0.21-0.39 0-1 0-1h-4c-0.34-2.22 1.07-6.2-2-7 3.1 2.39-1.21 9.84 6 8z" fill="#7e9983"/>
  <path d="m204 417c0.28 0.07 2.83 0.18 3 0v-1c-1.57 0.19-2.06 0-3-1-4.3-2.79-2-18.21-2-24-2.35 3.16-2.96 24.78 2 26z" fill="#96b3ab"/>
  <path d="m372 399c7.54-0.25 16.01-1.32 23-2-6.29 0-18.11-1.62-23 2z" fill="#0f7383"/>
  <path d="m372 399c0.45 4.95 2.2 21.73-1 25-0.5 0.51-1.41 0.68-2 1-4.15 2.29-11.95 1-17 1h-5c-5.71 0.61-12.61 1-19 1h-5c-3.75 0.4-8.57 1-13 1h-1c-2.57 1.9-17.66 2.53-21 1-1.09 0.91-2.67-5.19-2-7s-0.21-6.44 0-9 0-7.25 0-10c-2.95 0.26-6.04 0-9 0-7.23 0-14.8-0.65-22 0v1c0 9.99 0.67 20.4-1 30-2.28-5.42-0.37-12.82-1-19-0.25 0.25-1 0-1 0 0.5 5.56 0 11.41 0 17v12h-3c0.73 0.32 1.67 1.65 3 1 1.72 3.37 0.06 7.69 2 11 1.39 0 3.7-0.45 5 0 13-1.92 26.99-3 41-3h2c11.56-4.92 27.32-0.53 40.22-2.78s29.35-1.22 42.78-1.22h2c3.41-1.45 8.87-1.37 13-1 0.19-5.98-0.7-12.79 1-18 0.24-0.72 2.12-3.55 2-3 0.21-0.94-3.24-5.11-2-8s-0.4-6.76 0-10 0-7.65 0-11c0 0-0.22-0.62 0-1-1.82-0.38-4.14 0-6 0-6.99 0.68-15.46 1.75-23 2z" fill="#076ac1"/>
  <path d="m115 403h6c1.33-4.64-2.07-5.84-6-5-0.53 1.03 0 3.82 0 5z" fill="#53855f"/>
  <path d="m144 399c1.73 3.31-0.68 12.25 0 17 0.05 0.35 0.65 0.96 1 1 0.49 0.05 1 0 1 0 0-3.28 1.9-18.17-2-19 0 0-0.21 0.61 0 1z" fill="#bac8b8"/>
  <path d="m288 402c0.25-0.25 1 0 1 0 2.55-1.88 7.65-1 11-1 20.93 0 41.1-2 62-2-0.04 0 0-1 0-1-6.13 0-14.05-0.16-20 0-5.94 0.17-13.34 1.89-19 1s-14.44 1.95-19 1-16.86 0.74-16 2z" fill="#2a6c1b"/>
  <path d="m362 399h8v25h-5c-1.96 0.17-4.03 0-6 0-0.1 0.02 0 1 0 1 3.1 0 6.98 0.64 10 0 0.59-0.32 1.5-0.49 2-1 2.8-6.11-0.61-18.2 0-25-2.67-1.53-5.94-1-9-1 0 0-0.04 1 0 1z" fill="#9b9a59"/>
  <path d="m403 427c2.44 3.09 7.51 3.68 12 4 1.32 0.09 2.68-0.13 4 0-4.56-1.18-13.08-2.93-11-9s2.97-10.69 9-12h-5c-0.57 0.18-0.99 0.85-2 1-3.78 1.76-7.46 5.94-7 11-2.19-3.09-0.43-8.16-1-12v-1c0-3.35 0.88-8.45-1-11 0 3.35 0.4 7.76 0 11s1.24 7.11 0 10 2.21 7.06 2 8z" fill="#043074"/>
  <path d="m300 401c-3.08 0.3-7.25 1-11 1 0 0-0.75-0.25-1 0v2c7.47-3.79 17.71 0.05 26.01-1.99s18.6 1.38 27.06-0.94c8.47-2.31 19.63 2.21 27.93-1.07v23c-1.28 0.28-3.5-0.76-4 1h5v-25h-8c-20.9 0-41.07 2-62 2z" fill="#e1d352"/>
  <path d="m371 424c3.2-3.27 1.45-20.05 1-25 0 0-0.62 0.22-1 0-0.61 6.8 2.8 18.89 0 25z" fill="#000005"/>
  <path d="m143 400c-2.8 1.9-2.66 0.03-4 5 3.77 1.07 4.65-1.9 4-5z" fill="#5c9665"/>
  <path d="m288 404c-0.01 7.33 0 14.67 0 22 5.62 2.85 15.66 1 22 1h2c4.61-1.96 10.69-0.49 16-1 9.77-0.95 20.33-2 31-2 1.97 0 4.04 0.17 6 0 0.5-1.76 2.72-0.72 4-1v-23c-8.3 3.28-19.46-1.24-27.93 1.07-8.46 2.32-18.76-1.1-27.06 0.94s-18.54-1.8-26.01 1.99z" fill="#f8c20e"/>
  <path d="m289 402c3.75 0 7.92-0.7 11-1-3.35 0-8.45-0.88-11 1z" fill="#748528"/>
  <path d="m277 403c2.96 0 6.05 0.26 9 0v-1c-3.18-0.46-6.55 0.76-9 1z" fill="#197388"/>
  <path d="m286 403c0 2.75 0.21 7.44 0 10s0.67 7.19 0 9 0.91 7.91 2 7c-0.36-0.16-0.92-1.64-1-2-1.63-7.64 1.12-16.25 0-24-0.26-0.12-0.65-0.95-1-1z" fill="#001b37"/>
  <path d="m287 427c0 0.05 1 0 1 0 0.25-0.25 0-1 0-1 0-7.33-0.01-14.67 0-22v-1s-0.59 0.19-1 0c1.12 7.75-1.63 16.36 0 24z" fill="#938135"/>
  <path d="m253 414c0.19 0.41 0 1 0 1 0.63 6.18-1.28 13.58 1 19 1.67-9.6 1-20.01 1-30 0 0-1-0.04-1 0 0 3.15 0.76 7.61-1 10z" fill="#071f4d"/>
  <path d="m403 409c2.22 1.64 6.06 1 9 1h5c1.63 0 3.38 0.18 5 0 1.56-0.18 3.72-1.25 6-1 0.49 0.05 1 0 1 0 4.12 0.39 9.86-2.45 13 0 0.25-0.25 1 0 1 0s0.24-0.8 0-1c-4.73-3.82-14.26 0.47-19.93 0.07-5.66-0.39-13.86 2.23-20.07 0.93z" fill="#258573"/>
  <path d="m429 409c2.64 1.95 9.47 1.32 13 1v-1c-3.14-2.45-8.88 0.39-13 0z" fill="#03527a"/>
  <path d="m402 410c1.83 1.48 5.74 1.34 8 1 1.01-0.15 1.43-0.82 2-1-2.94 0-6.78 0.64-9-1 0 0-0.75-0.25-1 0z" fill="#174a4e"/>
  <path d="m422 410c1.66 0.1 3.34-0.08 5 0v22c1.34-0.21 3.05-1.76 4-2-4.95-2.32-0.4-15.88-3-21-2.28-0.25-4.44 0.82-6 1z" fill="#3696d7"/>
  <path d="m431 430c2.54-0.65 9.01 0.81 11-1v-19c-3.53 0.32-10.36 0.95-13-1 0 0-0.51 0.05-1 0 2.6 5.12-1.95 18.68 3 21z" fill="#076ec5"/>
  <path d="m442 410v19c2.77-2.51 1.35-16.05 1-20 0 0-0.75-0.25-1 0z" fill="#5e91bf"/>
  <path d="m442 429c-1.99 1.81-8.46 0.35-11 1-0.95 0.24-2.66 1.79-4 2-3.01 0.48-5.25-0.73-8-1-1.32-0.13-2.68 0.09-4 0 8.45 2.6 14.1 2.05 23 0 8.89-2.05 6.75-13.68 6-22 0 0-0.75 0.25-1 0 0.35 3.95 1.77 17.49-1 20z" fill="#c7dcee"/>
  <path d="m410 411c-2.26 0.34-6.17 0.48-8-1 0.57 3.84-1.19 8.91 1 12-0.46-5.06 3.22-9.24 7-11z" fill="#000d48"/>
  <path d="m419 431c2.75 0.27 4.99 1.48 8 1v-22c-1.66-0.08-3.34 0.1-5 0-1.62 0.18-3.37 0-5 0-6.03 1.31-6.92 5.93-9 12s6.44 7.82 11 9z" fill="#0857a7"/>
  <path d="m204 415c0.94 1 1.43 1.19 3 1 0.49-0.06 1 0 1 0 4.92 0 10.11 0.47 15 0 3.4-0.33 7.92-1 12-1 5.33 0 10.67-0.01 16 0h1s0.75 0.25 1 0c0 0 0.19-0.59 0-1-0.12-0.26-0.95-0.65-1-1-5.04 0.67-3.9 0.96-10 1s-14.98-0.18-21 0-6.74-1.49-10.98 0.02c-4.24 1.52-4.88-1.88-7.02-1.02 0.13 0.6 0.57 1.55 1 2z" fill="#2b7660"/>
  <path d="m223 416c-1.53 2.19 0.59 8.29 0 11s-0.45 8.05 1 10c0-4.53-2.24-17.66 1.26-20.74 3.5-3.09 13.76 1.52 16.49 4.99 2.73 3.46 1.57 14.86-3.75 16.75 4.97-0.24 5.93-1.26 7 4 0.1-3-0.83-6.43 2-8-4.3-0.63-0.06-15.57-8-18-1.59-0.09-3.03-0.83-4-1-4.08 0-8.6 0.67-12 1z" fill="#14508e"/>
  <path d="m239 416c2.32 0.13 4.68 0 7 0 1.39 0 3.69 0.45 5 0v-1c-5.33-0.01-10.67 0-16 0 0.97 0.17 2.41 0.91 4 1z" fill="#032d33"/>
  <path d="m251 416c0 5.26-0.47 10.76 0 16 0.32-0.24 1 0 1 0 0-5.59 0.5-11.44 0-17h-1z" fill="#1b396b"/>
  <path d="m146 474c-11.73-7.18-17.29-25.19-31-30v-28s-1-0.04-1 0v29c3.59 1.18 9.94 4.56 8 9 9.68 1.21 15.96 18 24 20z" fill="#e4d1ab"/>
  <path d="m146 474c6.54 1.63 12.49 4.67 19 6 2.04 0.42 3.88 0.79 6 1-0.99-10.91 1.05-22.1 0-33-1.29-1.25-2.2-6.28-3-8-0.61-1.31-0.52-2.42-1-4-1.1-2.02-5.23-1.63-7-2-3.69-0.34-9.93-1.35-11 3-10.04-0.19-1.92-14.71-6-20-3.66 0.81-11.52 0.09-15 0s-11.07 1.73-13-1v28c13.71 4.81 19.27 22.82 31 30m20-38v11c-7.77 1.55-3.07-9.69 0-11z" fill="#c99111"/>
  <path d="m143 417c4.08 5.29-4.04 19.81 6 20 1.07-4.35 7.31-3.34 11-3-2.73-0.57-10.59-3.33-11 2-7.92-1.03-2.32-13.24-4-19-0.35-0.04-0.95-0.65-1-1-0.05 0.23-0.77 0.95-1 1z" fill="#d2af76"/>
  <path d="m207 417c0 4.32-1.97 13.54-1 17 2.57 3.43 4.77 3 9 3h7v-20c-4.75 0.88-12.23-2.38-14 3v-4s-0.51-0.06-1 0z" fill="#124982"/>
  <path d="m215 437c0.14 0.05 0 1.5 0 2 1.61-2.09 6.74-0.8 9-1-0.04 0 0-1 0-1-1.45-1.95-1.59-7.29-1-10s-1.53-8.81 0-11c-4.89 0.47-10.08 0-15 0v4c1.77-5.38 9.25-2.12 14-3v20z" fill="#182c57"/>
  <path d="m224 437s-0.04 1 0 1c4.51 0.41 9.48 0.22 14 0 5.32-1.89 6.48-13.29 3.75-16.75-2.73-3.47-12.99-8.08-16.49-4.99-3.5 3.08-1.26 16.21-1.26 20.74z" fill="#0c6ec5"/>
  <path d="m247 434c0.43-0.18 1 0 1 0 0.29-3.21 1.07-16.15-2-18-2.32 0-4.68 0.13-7 0 7.94 2.43 3.7 17.37 8 18z" fill="#03205e"/>
  <path d="m248 434c1.3-0.32 2.12-1.34 3-2-0.47-5.24 0-10.74 0-16-1.31 0.45-3.61 0-5 0 3.07 1.85 2.29 14.79 2 18z" fill="#010426"/>
  <path d="m160 434c1.77 0.37 5.9-0.02 7 2-2.94-6.46-14.58-4.5-20-2-1.76-5.18-1-11.39-1-17 0 0-0.51 0.05-1 0 1.68 5.76-3.92 17.97 4 19 0.41-5.33 8.27-2.57 11-2z" fill="#dcc8ab"/>
  <path d="m206 434c-0.97-3.46 1-12.68 1-17-0.17 0.18-2.72 0.07-3 0 1.75 5.83-1.82 11.91 2 17z" fill="#707f92"/>
  <path d="m328 426c3.93-0.36 8.06 0 12 0 3.4-0.33 7.92-1 12-1h7s-0.1-0.98 0-1c-10.67 0-21.23 1.05-31 2z" fill="#ddc464"/>
  <path d="m340 426h12c0.15-0.05 0-1 0-1-4.08 0-8.6 0.67-12 1z" fill="#888850"/>
  <path d="m352 426c5.05 0 12.85 1.29 17-1-3.02 0.64-6.9 0-10 0h-7s0.15 0.95 0 1z" fill="#0b3d6e"/>
  <path d="m288 427c4.07 3.01 15.67 1 21 1h1c0.25-0.25 0-1 0-1-6.34 0-16.38 1.85-22-1 0 0 0.25 0.75 0 1z" fill="#a8a05a"/>
  <path d="m312 427h16c0.15-0.05 0-1 0-1-5.31 0.51-11.39-0.96-16 1z" fill="#ab9e57"/>
  <path d="m328 427c6.39 0 13.29-0.39 19-1h-7c-3.94 0-8.07-0.36-12 0 0 0 0.15 0.95 0 1z" fill="#274a67"/>
  <path d="m288 429c3.34 1.53 18.43 0.9 21-1-5.33 0-16.93 2.01-21-1 0 0-1 0.05-1 0 0.08 0.36 0.64 1.84 1 2z" fill="#174e66"/>
  <path d="m310 428c4.43 0 9.25-0.6 13-1h-13s0.25 0.75 0 1z" fill="#193c68"/>
  <path d="m400 448c3.08-4.16 0.07-12.75 1-18-1.7 5.21-0.81 12.02-1 18z" fill="#7faed5"/>
  <path d="m248 434s-0.57-0.18-1 0c-2.83 1.57-1.9 5-2 8-1.07-5.26-2.03-4.24-7-4-4.52 0.22-9.49 0.41-14 0 0.23 0.05 0.65 0.89 1 1 1.41 0.39 3.53 0 5 0h1c0.5 0 1.5-0.05 2 0 1.63 0.16 2.69 1.11 4 2 0.93 0.63 2.21 1.3 3 2 2.89 0.93 6.1-0.27 9 1h3v-12s-0.68-0.24-1 0c-0.88 0.66-1.7 1.68-3 2z" fill="#496179"/>
  <path d="m187 434c0.49 0.06 1 0 1 0h10c-2.47-0.69-8.62-2.48-11 0z" fill="#7e9684"/>
  <path d="m171 440c-0.36 2.87 0.29 5.39 1 8 7.06 7.2 15.62-4.16 13-11 5.59 1.62 11.58 0.77 17-1-1.41-2.02-1.77-1.38-4-2-2.91-0.16-6.84 2.34-10 0 0 0-0.51 0.06-1 0-4.08-0.98-2.88 3.54-3 6z" fill="#446e4b"/>
  <path d="m198 434h-10c3.16 2.34 7.09-0.16 10 0z" fill="#023e09"/>
  <path d="m166 436c-3.07 1.31-7.77 12.55 0 11z" fill="#b37304"/>
  <path d="m172 448c0.27 2.95 0 6.04 0 9 0.67 6.91 1.58 15.37 1 23 7.83 0.66 16.99-1.33 24 1h18c0.1-0.02 0-1 0-1h-3c4.51-8.02 0.78-20.31 2-30-0.15-2.06-0.18-3.16-1-5-0.49-1.11-2.52-2.24-2-4-2.68 0-4.11-0.11-6.92-0.08-2.8 0.02-1.28-3.78-2.08-4.92-5.42 1.77-11.41 2.62-17 1 2.62 6.84-5.94 18.2-13 11m31 0c-2.07-4.64 3.37-8.97 6.89-4.89s-3.32 6.17-6.89 4.89m-1-5c1.85 4.14-4.04 5.38-6 3 2.12-2.65 4.5-0.43 6-3z" fill="#164612"/>
  <path d="m215 439v2c0 2.63-1.73 2.17-2 4 0.82 1.84 0.85 2.94 1 5 1.71 9.2 0.8 20.07 1 30 9.17-0.83 18.16 1.23 27 1 0.97-0.03 2.04 0.13 3 0-1.36-1.17-4.18-4.4-2-6-2.26-1.66-4.78-4.11-7-6-7.48-6.39-6-12.43-6-22-0.16-1.63-1.94-4.67-1-7-1.28-0.28-3.5 0.76-4-1-0.35-0.11-0.77-0.95-1-1-2.26 0.2-7.39-1.09-9 1z" fill="#630705"/>
  <path d="m230 447c0-2.63-0.24-5.38 0-8-1.47 0-3.59 0.39-5 0 0.5 1.76 2.72 0.72 4 1-0.94 2.33 0.84 5.37 1 7z" fill="#30070c"/>
  <path d="m230 447c0 9.57-1.48 15.61 6 22-0.23-0.16 0-1 0-1-6.93-4.85-5-12.23-5-20 0-2.96 0.27-6.05 0-9h-1c-0.24 2.62 0 5.37 0 8z" fill="#693517"/>
  <path d="m231 448c2.99 0.3 5.83 0.11 8-2 3.89 3.91 8.78 7.23 13 11 0.4 0.2 1 0 1 0h6c0.1-0.02 0-1 0-1-1.3-0.45-3.61 0-5 0h-1c-2.69-1.32-5.61-4.29-8-6-4.33-3.09-7.73-8.39-12-11-0.5-0.05-1.5 0-2 0 0.27 2.95 0 6.04 0 9z" fill="#9f8346"/>
  <path d="m245 450c-2.91-2.44-5.15-6.6-8-9-1.31-0.89-2.37-1.84-4-2 4.27 2.61 7.67 7.91 12 11z" fill="#5a583d"/>
  <path d="m171 448c0.26 0.25 1 0 1 0-0.71-2.61-1.36-5.13-1-8-0.76 0-2.3 0.28-3 0 0.8 1.72 1.71 6.75 3 8z" fill="#b2a162"/>
  <path d="m213 445c0.27-1.83 2-1.37 2-4-0.26 0.34-3.49 0-4 0-0.52 1.76 1.51 2.89 2 4z" fill="#816350"/>
  <path d="m245 450c2.39 1.71 5.31 4.68 8 6-3.42-4.9-8.74-9.27-13-13-0.79-0.7-2.07-1.37-3-2 2.85 2.4 5.09 6.56 8 9z" fill="#0c1b1a"/>
  <path d="m203 448c3.57 1.28 10.41-0.81 6.89-4.89s-8.96 0.25-6.89 4.89z" fill="#52785c"/>
  <path d="m202 443c-1.5 2.57-3.88 0.35-6 3 1.96 2.38 7.85 1.14 6-3z" fill="#011e00"/>
  <path d="m253 456h1c-1.94-3.31-0.28-7.63-2-11-1.33 0.65-2.27-0.68-3-1-2.9-1.27-6.11-0.07-9-1 4.26 3.73 9.58 8.1 13 13z" fill="#0c3553"/>
  <path d="m231 448c0 7.77-1.93 15.15 5 20 3.17 2.35 12.02 11.69 16 11 0.49-7.29-0.66-14.73 0-22-4.22-3.77-9.11-7.09-13-11-2.17 2.11-5.01 2.3-8 2z" fill="#9d6708"/>
  <path d="m171 481c0.49 0.05 1 0 1 0 0.71-7.85 0-16.11 0-24 0-2.96 0.27-6.05 0-9 0 0-0.74 0.25-1 0 1.05 10.9-0.99 22.09 0 33z" fill="#877524"/>
  <path d="m387 449h7c1.86 0 4.18 0.38 6 0 0 0-0.24-0.68 0-1-4.13-0.37-9.59-0.45-13 1z" fill="#004581"/>
  <path d="m302 453h22c3.73-0.36 8.59-1 13-1h10c2.42-0.23 5.91-1 9-1 9.91 0 19.06-1 29-1-0.04 0 0-1 0-1-13.43 0-29.88-1.03-42.78 1.22s-28.66-2.14-40.22 2.78z" fill="#13497e"/>
  <path d="m385 450c3.1 0 6.64-0.77 9-1h-9s-0.04 1 0 1z" fill="#738272"/>
  <path d="m385 450c-9.94 0-19.09 1-29 1-2.42 0.23-5.9 1-9 1h-10c-3.73 0.36-8.59 1-13 1h-15c-2.28 0.22-6.13 0.72-9 1-5.37 0.52-11.95 1-18 1-7.81 0-15.25 0.3-23 1 0 0 0.1 0.98 0 1 47.06 0.02 94.33-4.07 141-6-1.24 6.54 2.55 16.87-2 21 2.94-12.08-16.44-10.58-21-7 3.08-2.49 14.7-1.74 18 0 3.7 0.79 0.76 7.27 5 9 2.37-3.77 4.79-22.82 0-25-1.82 0.38-4.14 0-6 0-2.36 0.23-5.9 1-9 1z" fill="#dcc96c"/>
  <path d="m215 480c-0.2-9.93 0.71-20.8-1-30-1.22 9.69 2.51 21.98-2 30z" fill="#1d2007"/>
  <path d="m347 452c3.1 0 6.58-0.77 9-1-3.09 0-6.58 0.77-9 1z" fill="#879278"/>
  <path d="m259 457h-6c0.42 4.63-0.31 9.36 0 14 3.84 0.83 5.97-3.3 10-2 1.65-0.07 3.35-0.05 5 0 7.97-0.85 14.23-1.32 22-1 4.5 0.19 9.21-0.4 13 1 5.01 1.85 3.48 4.31 5 9 0.6 0.29 2.32 0 3 0 4.63 0 10.5 0.99 15 0 0.73-0.16 1.75-0.89 3-1 4.04-1.09 15.54-7.82 18-11 4.27-1.24 20.39-2.97 22 3 3.81 0.76 5.65-2.16 8-4 4.56-3.58 23.94-5.08 21 7 4.55-4.13 0.76-14.46 2-21-46.67 1.93-93.94 6.02-141 6z" fill="#edb212"/>
  <path d="m324 453c4.41 0 9.27-0.64 13-1-4.41 0-9.27 0.64-13 1z" fill="#86906d"/>
  <path d="m259 456c7.75-0.7 15.19-1 23-1 5.27-0.51 12.13-0.47 18-1-0.04 0 0-1 0-1-14.01 0-28 1.08-41 3z" fill="#11447c"/>
  <path d="m300 454c2.87-0.28 6.72-0.78 9-1h-9s-0.04 1 0 1z" fill="#4d6c5f"/>
  <path d="m282 455c6.05 0 12.63-0.48 18-1-5.87 0.53-12.73 0.49-18 1z" fill="#818a6b"/>
  <path d="m172 481h25c-7.01-2.33-16.17-0.34-24-1 0.58-7.63-0.33-16.09-1-23 0 7.89 0.71 16.15 0 24z" fill="#0d2900"/>
  <path d="m252 479c2.1-0.36 2.27-2.55 4-4-0.52-4.15 4.19-5.64 7-6-4.03-1.3-6.16 2.83-10 2-0.31-4.64 0.42-9.37 0-14 0 0-0.6 0.2-1 0-0.66 7.27 0.49 14.71 0 22z" fill="#db9211"/>
  <path d="m377 465c-0.24 0.2 0 1 0 1 0.25 0.25 1 0 1 0 4.7-3.48 11.66 1.05 17 0-0.24-0.32 0-1 0-1-3.3-1.74-14.92-2.49-18 0z" fill="#446a75"/>
  <path d="m347 466c-0.13 0.04 0 1 0 1 6.28-0.47 22.68-4.19 21 7 0.25-0.25 1 0 1 0 0.34-0.98 0.27-4 0-5-1.61-5.97-17.73-4.24-22-3z" fill="#a09f6e"/>
  <path d="m369 469c0.27 1 0.34 4.02 0 5 1.93 0.36 4.05-0.27 6 0 0.12-2.05 0.5-4.7 2-6 0.02-0.5 0-1.5 0-2 0 0-0.24-0.8 0-1-2.35 1.84-4.19 4.76-8 4z" fill="#866417"/>
  <path d="m378 466c2.91-0.68 7.99 2.87 11 3-0.44 4.13-0.14 8.8 4 10-2.3 0.4-5.37 0.46-7 2 3.45-0.12 6.4-1.44 10-1 1.34-1.75-0.79-3.85 1-5-0.2-0.4 0-1 0-1-1.51-2.64-0.34-5.76-2-8-5.34 1.05-12.3-3.48-17 0z" fill="#1472c2"/>
  <path d="m395 466c1.66 2.24 0.49 5.36 2 8 0.25-0.25 1 0 1 0 0.44 0.08 1.63 0.77 2 1 0 0-0.23-0.64 0-1-4.24-1.73-1.3-8.21-5-9 0 0-0.24 0.68 0 1z" fill="#9fae8d"/>
  <path d="m329 477c8.73-0.77 10.51-5.91 18-8 0.25-0.26 0-1.5 0-2 0 0-0.13-0.96 0-1-2.46 3.18-13.96 9.91-18 11z" fill="#c19015"/>
  <path d="m347 467c0 0.5 0.25 1.74 0 2 2.36 0.18 4.6 0.63 7 1 7.68 1.2 5.25 4.14 7 11-3.85 0.8-7.85 1.31-12 1v38c-0.12 0.29-1.7 1.69-2 1 0.08 0.02 1.65 0.86 2 1 1.64 0.14 2.05-0.79 3-1-1.04 0.64 5.17-3.04 5-3 0.71-1.41 0.48-4.62 1-6 1.81-4.81 6.48-7.65 12-6 3.08 0.92 4.14 4.55 5 7 0.56 1.6 1.62 3.77 1 6 1.88 0.47 4.93-1.06 6 1 2.45-0.03 5.27-0.82 7-1-3.01-0.15-3.79 0.64-5-2-0.99-2.16 0.44-5.47 1-7 1.77-4.79 6.05-7.21 11-5 2.48 1.11 2.99 2.98 4 5 1.13 2.26 2.72 4.92 2 8 1.57 0.39 4.22-0.94 5 1h1c0.57-6.28 0.23-15.98 0-22s2.44-15.89-3-19c0 0-0.68 0.24-1 0 0.67 0.93 0.72 2.27 2 3-7.06 1.41-16.36 1.85-23 0-5.2 0-10.05-0.06-15-1v-4c0.1-0.48 0-1 0-1v-1c1.68-11.19-14.72-7.47-21-7z" fill="#0e70c9"/>
  <path d="m377 468c-0.26 6.46-2.99 7.12-9 7 0 0 0.1 0.52 0 1 1.52 0.52 2.51 1.37 4 2 2.49 0.66 5.46-0.5 8 0 0.19-3.55-2.61-6.3-2-10-0.01-0.5 0.23-1.84 0-2 0 0-0.75 0.25-1 0 0 0.5 0.02 1.5 0 2z" fill="#0a2048"/>
  <path d="m378 468c2.18 0.66 7.51-0.97 6.97 3.03-0.53 4 0.66 4.81 2.03 7.97-4.83-0.65-10.99 1.31-15-1-1.49-0.63-2.48-1.48-4-2v4c4.95 0.94 9.8 1 15 1 1 0 2 0.03 3 0 1.63-1.54 4.7-1.6 7-2-4.14-1.2-4.44-5.87-4-10-3.01-0.13-8.09-3.68-11-3 0.23 0.16-0.01 1.5 0 2z" fill="#0a56a9"/>
  <path d="m268 469c2.08 0.06 3.56-0.39 5 1h1c2.91-0.14 4.12 1.41 5 4 4.05-1.09 7.14-5.14 11-6-7.77-0.32-14.03 0.15-22 1z" fill="#f7a00d"/>
  <path d="m236 469c2.22 1.89 4.74 4.34 7 6 0.3 0.22 0.9 0.65 1 1 1.13 1 3.91 3.5 5 4 4.35 1.24 7.27 0.08 8-5-0.05 0.14-1 0-1 0-1.73 1.45-1.9 3.64-4 4-3.98 0.69-12.83-8.65-16-11 0 0-0.23 0.84 0 1z" fill="#b5621d"/>
  <path d="m274 470c2.07 1.23 4.6 4.79 5 7 1.02-1.38 7.4-4.97 9-6 2.84-1.82 9.6-3.2 15-2-3.79-1.4-8.5-0.81-13-1-3.86 0.86-6.95 4.91-11 6-0.88-2.59-2.09-4.14-5-4z" fill="#e66715"/>
  <path d="m369 474s-0.75-0.25-1 0v1c6.01 0.12 8.74-0.54 9-7-1.5 1.3-1.88 3.95-2 6-1.95-0.27-4.07 0.36-6 0z" fill="#493e28"/>
  <path d="m372 478c4.01 2.31 10.17 0.35 15 1-1.37-3.16-2.56-3.97-2.03-7.97 0.54-4-4.79-2.37-6.97-3.03-0.61 3.7 2.19 6.45 2 10-2.54-0.5-5.51 0.66-8 0z" fill="#043085"/>
  <path d="m256 475s0.95 0.14 1 0c0.5-1.59-0.21-1.79 1-3 2.86-2.86 10.92-2 15-2-1.44-1.39-2.92-0.94-5-1-1.65-0.05-3.35-0.07-5 0-2.81 0.36-7.52 1.85-7 6z" fill="#f17b1c"/>
  <path d="m288 471c2.73-0.37 7.42 3.65 11 2-1.03 5.92 0.16 9.83 6 10-7.52 0.33-28.09 5.17-26-6-0.4-2.21-2.93-5.77-5-7h-1c-4.08 0-12.14-0.86-15 2 0.39-0.17 4.5 3.82 6 2 2.67 3.24 0.7 8.54 4 11-4.66 1.5-10.32 1.47-15 0 2.22 11.85 0.41 24.74 1 37 0 0.39 0.26 2.76 0 3 2.77 0 5.96-0.8 8-1 1.4-1.41 0.37-6.13 1-8 1.97-5.87 6.27-7.65 13-7s2.99 12.87 6 15c3.42 0 7.31-0.74 10-1-3.6 1.26 2.9-3.04 5-1-1.66-2.54-8.19 1.17-7-4-1.27-4.6 2.17-8.65 6-10 9.9-3.48 12 5.9 12 14 1.97 0.25 4.02-0.19 6 0 0.66-7.83-1.33-16.99 1-24-0.78-5.45 0.88-9.64-2-14-2.2-2.54-3.77-2.21-5-6-1.52-4.69 0.01-7.15-5-9-5.4-1.2-12.16 0.18-15 2z" fill="#ee322c"/>
  <path d="m329 477c-1.25 0.11-2.27 0.84-3 1 3.33-0.9 7.79 1.21 11 0 0.48-0.18 2.31-1.64 3-2 2.38-1.23 4.62-3.34 7-5-0.08-0.49 0-1 0-1v-1c-7.49 2.09-9.27 7.23-18 8z" fill="#886724"/>
  <path d="m347 470c3.97 5.05-2.16 6.68-6 7 3.88 0.87 9.01 6.05 15 4 0.42-3.95-1.35-7.3-2-11-2.4-0.37-4.64-0.82-7-1z" fill="#0d3376"/>
  <path d="m347 471c1.02 6.03-3.23 4.08-7 5-0.69 0.36-2.52 1.82-3 2 0.03-0.11 1.72-0.25 2 0-0.74-0.65 2.01-1 2-1 3.84-0.32 9.97-1.95 6-7 0 0-0.08 0.51 0 1z" fill="#2a3137"/>
  <path d="m341 477c0.01 0-2.74 0.35-2 1 2.03 3.34 4.44 5.83 9 6 0.67 11.83-1.33 24.99 1 36v-38c4.15 0.31 8.15-0.2 12-1-1.75-6.86 0.68-9.8-7-11 0.65 3.7 2.42 7.05 2 11-5.99 2.05-11.12-3.13-15-4z" fill="#1f579f"/>
  <path d="m279 477c-2.09 11.17 18.48 6.33 26 6-5.84-0.17-7.03-4.08-6-10-3.58 1.65-8.27-2.37-11-2-1.6 1.03-7.98 4.62-9 6z" fill="#ce1107"/>
  <path d="m340 476c3.77-0.92 8.02 1.03 7-5-2.38 1.66-4.62 3.77-7 5z" fill="#59461c"/>
  <path d="m257 475c-0.73 5.08-3.65 6.24-8 5-2.73-0.78-4.21-1.27-5-4-0.1-0.35-0.7-0.78-1-1-2.18 1.6 0.64 4.83 2 6 3.83-0.5 2.87 1.57 0 2 15.77 3.57 3.81 27.53 9 39-0.59-12.26 1.22-25.15-1-37 4.68 1.47 10.34 1.5 15 0-3.3-2.46-1.33-7.76-4-11-1.5 1.82-5.61-2.17-6-2-1.21 1.21-0.5 1.41-1 3z" fill="#b32217"/>
  <path d="m397 475c0.9 1.85 2.87 4.01 5 4-0.81-2.04-3.27-2.97-4-5 0 0-0.75-0.25-1 0 0 0-0.2 0.6 0 1z" fill="#0c406f"/>
  <path d="m397 475c-1.79 1.15 0.34 3.25-1 5-3.6-0.44-6.55 0.88-10 1-1 0.03-2 0-3 0 6.64 1.85 15.94 1.41 23 0-1.28-0.73-1.33-2.07-2-3-1.23-0.92-2.5-2.1-4-3-0.37-0.23-1.56-0.92-2-1 0.73 2.03 3.19 2.96 4 5-2.13 0.01-4.1-2.15-5-4z" fill="#408bcd"/>
  <path d="m249 480c-1.09-0.5-3.87-3-5-4 0.79 2.73 2.27 3.22 5 4z" fill="#7f1f06"/>
  <path d="m313 484c-0.65-0.99-2.99-2.84-3-4 0-0.07 1.06-2.03 1-2-0.68 0-2.4 0.29-3 0 1.23 3.79 2.8 3.46 5 6z" fill="#cb6a35"/>
  <path d="m310 480c0.61 2.4 6.3 2.74 5.92 6.08-0.39 3.34 1.16 9.56 0.08 12.92 1.11-2.05 7.88-0.93 10-2v-19c-4.5 0.99-10.37 0-15 0 0.06-0.03-1 1.93-1 2z" fill="#d0cbcb"/>
  <path d="m326 497v1c1.6 5.59 10.79 6.09 11.99-0.01s-2.26-14.62-0.99-19.99c-3.21 1.21-7.67-0.9-11 0z" fill="#4b5468"/>
  <path d="m326 498c0 1 0.03 2 0 3-0.19 6.1 4.46 7.22 8.75 10.25s6.35 6.73 10.25 9.75c0.5 0 1.92-0.18 2 0 0.3 0.69 1.88-0.71 2-1-2.33-11.01-0.33-24.17-1-36-4.56-0.17-6.97-2.66-9-6-0.28-0.25-1.97-0.11-2 0-1.27 5.37 2.19 13.89 0.99 19.99s-10.39 5.6-11.99 0.01z" fill="#0c2853"/>
  <path d="m408 519c2.19-3.1 1-9.98 1-14 0-5.15 2.82-27.4-4-27 5.44 3.11 2.77 12.98 3 19s0.57 15.72 0 22z" fill="#bfe0f3"/>
  <path d="m215 481h15v10c0 0.5-0.03 1.5 0 2 0.17 2.42-0.47 13.93-5.23 10.21-4.75-3.71-9.07 6.57-2.69 6.71 6.37 0.14 5.99 6.09 8.92 9.08 4.07 1.12 8.56 4 12 5 3.23 0.33 5.98-0.07 9 1-6.55-12.29-25.63-17.27-21-34 5.6 3.18 15.31-3.47 11-10-8.84 0.23-17.83-1.83-27-1 0 0 0.1 0.98 0 1z" fill="#895e59"/>
  <path d="m245 481c-0.96 0.13-2.03-0.03-3 0 4.31 6.53-5.4 13.18-11 10-4.63 16.73 14.45 21.71 21 34 0.44 0.16 1 0 1 0h1c0.26-0.24 0-2.61 0-3-5.19-11.47 6.77-35.43-9-39 2.87-0.43 3.83-2.5 0-2z" fill="#85322e"/>
  <path d="m313 484c2.88 4.36 1.22 8.55 2 14 0.05 0.35 0.87 0.73 1 1 1.08-3.36-0.47-9.58-0.08-12.92 0.38-3.34-5.31-3.68-5.92-6.08 0.01 1.16 2.35 3.01 3 4z" fill="#e9a19b"/>
  <path d="m178 482c2.47 0.03 5.27-0.83 7-1h-13c1.79 1.53 3.6 0.69 6 1z" fill="#647159"/>
  <path d="m178 482c10.07 1.3 21-0.03 31-1h-24c-1.73 0.17-4.53 1.03-7 1z" fill="#9ba593"/>
  <path d="m223 517c2.23-0.04 5.77 1.39 8 2-2.93-2.99-2.55-8.94-8.92-9.08-6.38-0.14-2.06-10.42 2.69-6.71 4.76 3.72 5.4-7.79 5.23-10.21-5.74 2.55-18.61 0-25 0-9.15 2.46-20.79-0.56-30 3 1.2 1.95 4.74 1.11 6 3-1.2 1.95-4.74 1.11-6 3 3.83 2.22 12.65-0.68 15.92 2.08 3.26 2.76 9.87-0.59 7.08 2.92 8.7 1.79 17.04 6.19 25 10z" fill="#7a706a"/>
  <path d="m316 499c0.29 0.6 0 2.32 0 3 2.21-0.94 8.56 1.65 10-1 0.03-1 0-2 0-3v-1c-2.12 1.07-8.89-0.05-10 2z" fill="#929199"/>
  <path d="m308 522v1c4.63-0.18 7.17-0.19 8-5 0.16-0.92 0-2.06 0-3v-13c0-0.68 0.29-2.4 0-3-0.13-0.27-0.95-0.65-1-1-2.33 7.01-0.34 16.17-1 24-1.98-0.19-4.03 0.25-6 0z" fill="#ce5959"/>
  <path d="m316 502v13c0.11-0.53 1.82-1.84 1-3 5.01 1.17 10.25 3.56 14 7 2.5 0.21 5.97 1.77 8 2 2 0.06 4 0 6 0-3.9-3.02-5.96-6.72-10.25-9.75s-8.94-4.15-8.75-10.25c-1.44 2.65-7.79 0.06-10 1z" fill="#545059"/>
  <path d="m385 510c0 6.5 8.97 3.35 13 6 0.29-3.91-0.59-7.52-2-11-4.95-2.21-9.23 0.21-11 5m9-5c3.05 4.61-3.9 9.68-8 7 1.68-4.38 2.92-6.83 8-7z" fill="#030621"/>
  <path d="m394 505c-5.08 0.17-6.32 2.62-8 7 4.1 2.68 11.05-2.39 8-7z" fill="#04040a"/>
  <path d="m385 510c-0.56 1.53-1.99 4.84-1 7 3.64-1.95 8.53 1.7 10 2h7c-0.03-3.04-0.04-6.19-1-9-1.01-2.02-1.52-3.89-4-5 1.41 3.48 2.29 7.09 2 11-4.03-2.65-13 0.5-13-6z" fill="#031248"/>
  <path d="m358 512c1.17 3.73 11.25 2.53 14 5 0.32-3.93-0.2-7.63-2-11-5.52-1.65-10.19 1.19-12 6z" fill="#03020a"/>
  <path d="m358 512c-0.52 1.38-0.29 4.59-1 6 4.57-0.96 7.32 1.3 11 2 2.61-0.25 5.38 0 8 0-1.96-1.14-0.6-5.27-1-7-0.86-2.45-1.92-6.08-5-7 1.8 3.37 2.32 7.07 2 11-2.75-2.47-12.83-1.27-14-5z" fill="#030f3d"/>
  <path d="m296 508c8.1-1.19 7.32 7.02 10 12-5.09-1.59-10.94-0.24-16-2-1.19 5.17 5.34 1.46 7 4-2.1-2.04-8.6 2.26-5 1 5.26-0.51 10.71 0.2 16 0v-1c0-8.1-2.1-17.48-12-14z" fill="#960a0a"/>
  <path d="m290 518c5.06 1.76 10.91 0.41 16 2-2.68-4.98-1.9-13.19-10-12-3.83 1.35-7.27 5.4-6 10z" fill="#5e0404"/>
  <path d="m263 516c-1.09 7.37 9.29 7 14 8h5c-3.01-2.13 0.73-14.35-6-15s-11.03 1.13-13 7z" fill="#6d0403"/>
  <path d="m401 519h6c-0.78-1.94-3.43-0.61-5-1 0.72-3.08-0.87-5.74-2-8 0.96 2.81 0.97 5.96 1 9z" fill="#074b96"/>
  <path d="m316 515c0 0.94 0.16 2.08 0 3-0.45-0.66 3.5 1.11 3 1 2.09 0.47 4.85 0 7 0 1.64 0 3.36-0.14 5 0-3.75-3.44-8.99-5.83-14-7 0.82 1.16-0.89 2.47-1 3z" fill="#7e6974"/>
  <path d="m376 520c2 0 4 0.03 6 0-1.07-2.06-4.12-0.53-6-1 0.62-2.23-0.44-4.4-1-6 0.4 1.73-0.96 5.86 1 7z" fill="#0b4e9f"/>
  <path d="m262 524c4.9-0.47 10.08 0 15 0-4.71-1-15.09-0.63-14-8-0.63 1.87 0.4 6.59-1 8z" fill="#ba1c1e"/>
  <path d="m222 518c1.74 0.47 7.72 4.44 5 3 4.89 0.83 10.63 2.45 16 3-3.44-1-7.93-3.88-12-5-2.23-0.61-5.77-2.04-8-2-0.34 0.01-0.8 0.98-1 1z" fill="#a38682"/>
  <path d="m389 519c1.62-0.17 3.37 0 5 0-1.47-0.3-6.36-3.95-10-2 1.21 2.64 1.99 1.85 5 2z" fill="#0b4294"/>
  <path d="m352 521c4.62-1.02 11.85-0.6 16-1-3.68-0.7-6.43-2.96-11-2 0.17-0.04-6.04 3.64-5 3z" fill="#1d5598"/>
  <path d="m339 521c-2.03-0.23-5.5-1.79-8-2-1.64-0.14-3.36 0-5 0 3.84 0.37 8.51 1.87 13 2z" fill="#978c97"/>
 </g>
 <g transform="translate(-37.143 131.32)" stroke-linecap="round" stroke-linejoin="round">
  <path d="m105.68 178.52c0.96266-0.25333 1.4693-0.93733 1.4693-2.1787v-16.289h10.108v-1.4947h-23.661v1.4947h11.755v16.289c0 0.532-0.40534 0.86133-1.0133 0.88667h-0.456-0.304c-0.73466 0-1.8493 0-2.964-0.0253h-0.304c-0.456-0.0253-0.912-0.0253-1.368-0.0507l0.17733 1.6467h0.38c3.0147 0 5.168-0.0253 6.1813-0.27867z" fill="#898a8a" stroke-width=".67089" aria-label="丁"/>
  <path d="m128.68 168.68a23.251 23.251 0 0 1-23.251 23.251 23.251 23.251 0 0 1-23.251-23.251 23.251 23.251 0 0 1 23.251-23.251 23.251 23.251 0 0 1 23.251 23.251z" fill="none" stroke="#000" stroke-width=".25"/>
 </g>
 <path d="m228.76 237.15h-51.291v5.3493h46.413v17.149h-42.165v4.8773h42.165v18.093h-107.93v-18.093h40.277v-4.8773h-40.277v-16.52c4.8773-0.944 9.912-1.888 15.104-3.1467l1.7307-0.31467c10.227-2.5173 20.296-5.3493 27.691-8.1813l-4.72-3.4613c-5.9786 2.5173-15.419 5.192-25.488 7.552l-1.7307 0.472c-0.15733 0-0.47199 0-0.78666 0.15734l-1.7307 0.31466c-3.776 0.944-7.7093 1.7307-11.485 2.5173l-3.6187-1.1013v49.717h117.84zm-77.25 119.89-0.31466-5.0346-30.837 5.192v-62.776h-5.0347v63.563c-8.496 1.2587-16.52 2.6747-22.813 3.4613l1.1013 5.192c9.912-1.5733 23.128-3.776 36.973-6.136l1.7307-0.31467c0.15733 0 0.472-0.15733 0.78666-0.15733l2.5173-0.472c1.1013-0.15733 2.2027-0.31466 3.304-0.472l3.4613-0.62933c1.5733-0.15733 3.304-0.472 4.8773-0.78666l1.7307-0.31467 1.7307-0.15733c0.15733-0.15734 0.472-0.15734 0.78666-0.15734zm95.186-2.6747-4.8773-0.94399c-0.62933 10.384-1.888 13.688-5.3493 13.688-10.384 0-16.363-22.656-16.677-72.531h-4.8773c0.78666 50.347 6.608 77.408 21.397 77.408 5.9787 0 9.1253-4.0907 10.384-17.621zm-32.096 1.2587-0.15733-4.8773c-4.5627 0.78666-9.1253 1.5733-13.531 2.36l-1.7307 0.31467c-0.15733 0-0.472 0.15733-0.78667 0.15733l-1.5733 0.31467c-9.7546 1.7307-19.195 3.4613-27.376 4.72v-63.563h-4.8773v64.349c-4.5627 0.78666-8.8106 1.5733-12.587 2.0453l1.2587 5.192c10.384-1.7307 24.229-4.4053 38.861-6.9226l1.7307-0.31467c0.472-0.15733 1.1013-0.31467 1.5733-0.31467l1.7307-0.31466c1.1013-0.15734 2.2027-0.472 3.304-0.62933l1.7307-0.31467c1.888-0.31467 3.9333-0.62933 5.8213-0.944l1.7307-0.31466c0.15733 0 0.472-0.15734 0.78666-0.15734l1.5733-0.31466c0.31467 0 0.62934 0 0.944-0.15734zm-8.3386-41.379c-4.5626-3.9333-13.688-9.912-21.712-13.216l-2.9893 3.4613c7.7093 3.6186 17.149 9.912 21.555 14.003zm-51.92 0c-4.248-4.0907-13.688-9.7546-21.397-12.744l-3.1467 3.9333c7.7093 2.9893 17.149 8.968 21.397 13.373zm-2.6747 25.331c-3.9333-4.5626-13.216-11.328-20.925-15.104l-3.304 3.4613c7.7093 3.776 16.835 10.699 20.925 15.576zm53.965 1.1013c-4.5627-4.5626-14.003-11.957-22.184-16.048l-3.1467 3.4613c7.8666 4.248 17.307 11.643 21.712 16.52z" stroke-linecap="round" stroke-linejoin="round" stroke-width=".67089" aria-label="鼠"/>
</svg>
